<?xml version="1.0" standalone="no"?>
<!DOCTYPE svg PUBLIC "-//W3C//DTD SVG 1.1//EN" "http://www.w3.org/Graphics/SVG/1.1/DTD/svg11.dtd" >
<!--
2013-9-30: Created.
-->
<svg>
<metadata>
Created by iconfont
</metadata>
<defs>

<font id="iconfont" horiz-adv-x="1024" >
  <font-face
    font-family="iconfont"
    font-weight="500"
    font-stretch="normal"
    units-per-em="1024"
    ascent="896"
    descent="-128"
  />
    <missing-glyph />
    
    <glyph glyph-name="x" unicode="x" horiz-adv-x="1001"
d="M281 543q-27 -1 -53 -1h-83q-18 0 -36.5 -6t-32.5 -18.5t-23 -32t-9 -45.5v-76h912v41q0 16 -0.5 30t-0.5 18q0 13 -5 29t-17 29.5t-31.5 22.5t-49.5 9h-133v-97h-438v97zM955 310v-52q0 -23 0.5 -52t0.5 -58t-10.5 -47.5t-26 -30t-33 -16t-31.5 -4.5q-14 -1 -29.5 -0.5
t-29.5 0.5h-32l-45 128h-439l-44 -128h-29h-34q-20 0 -45 1q-25 0 -41 9.5t-25.5 23t-13.5 29.5t-4 30v167h911zM163 247q-12 0 -21 -8.5t-9 -21.5t9 -21.5t21 -8.5q13 0 22 8.5t9 21.5t-9 21.5t-22 8.5zM316 123q-8 -26 -14 -48q-5 -19 -10.5 -37t-7.5 -25t-3 -15t1 -14.5
t9.5 -10.5t21.5 -4h37h67h81h80h64h36q23 0 34 12t2 38q-5 13 -9.5 30.5t-9.5 34.5q-5 19 -11 39h-368zM336 498v228q0 11 2.5 23t10 21.5t20.5 15.5t34 6h188q31 0 51.5 -14.5t20.5 -52.5v-227h-327z" />
    

    
    <glyph glyph-name="meishi" unicode="&#58881;" d="M499.066 568.464c-55.494-55.492-42.56-127.665-61.124-197.972l-311.21 314.214c-6.757 7.141-16.506 11.624-27.188 11.624-20.625 0-37.496-16.676-37.496-37.496l0-12.739c0-113.058 48.747-322.288 200.983-489.887L83.799-22.852c-29.065-29.037-29.065-76.291 0-105.347 29.054-29.073 76.301-29.073 105.173 0l178.663 178.858 106.87-106.868 92.239 83.796 155.798-155.787c28.872-29.073 76.117-29.073 105.173 0 29.065 29.056 29.065 76.31 0 105.347L581.179 225.76c71.057 19.502 143.798 5.806 199.29 61.317l167.608 167.598c18.564 18.382 18.564 48.372 0 66.916-18.557 18.585-48.556 18.585-66.929 0L733.599 374.245c-11.058-11.058-29.056-11.058-40.113 0-11.251 11.059-11.251 29.056 0 40.115l147.356 147.549c18.557 18.381 18.557 48.372 0 66.936-18.564 18.546-48.554 18.546-66.927 0L626.366 481.48c-11.067-11.241-29.065-11.241-40.123 0-11.06 11.058-11.06 29.074 0 40.111l147.356 147.553c18.566 18.381 18.566 48.368 0 66.936-18.555 18.564-48.554 18.564-66.927 0L499.066 568.464z"  horiz-adv-x="1024" />

    
    <glyph glyph-name="xx" unicode="&#58885;" d="M62.557266 300.467651c0-247.979838 200.323445-448.957175 447.417099-448.957175 247.094678 0 447.419146 200.977337 447.419146 448.957175 0 247.942999-200.324468 448.957175-447.419146 448.957175C262.881734 749.424826 62.557266 548.41065 62.557266 300.467651zM921.599284 300.467651c0-227.758284-184.664813-413.040151-411.624918-413.040151-226.994897 0-411.623895 185.28289-411.623895 413.040151S282.980491 713.508825 509.974365 713.508825C736.93447 713.508825 921.599284 528.225935 921.599284 300.467651zM317.620429 273.21496 292.313044 247.821617 509.974365 29.427608 727.601918 247.821617 702.295556 273.21496 527.871991 98.173318 527.871991 533.92575 492.078787 533.92575 492.078787 98.173318Z"  horiz-adv-x="1024" />

    
    <glyph glyph-name="shouji" unicode="&#58913;" d="M820.409449 14.771654q0-25.19685-10.07874-46.866142t-27.716535-38.299213-41.322835-26.204724-50.897638-9.574803l-357.795276 0q-27.212598 0-50.897638 9.574803t-41.322835 26.204724-27.716535 38.299213-10.07874 46.866142l0 675.27559q0 25.19685 10.07874 47.370079t27.716535 38.80315 41.322835 26.204724 50.897638 9.574803l357.795276 0q27.212598 0 50.897638-9.574803t41.322835-26.204724 27.716535-38.80315 10.07874-47.370079l0-675.27559zM738.771654 641.66929l-455.559055 0 0-577.51181 455.559055 0 0 577.51181zM510.992126 35.937008q-21.165354 0-36.787402-15.11811t-15.622047-37.291339q0-21.165354 15.622047-36.787402t36.787402-15.622047q22.173228 0 37.291339 15.622047t15.11811 36.787402q0 22.173228-15.11811 37.291339t-37.291339 15.11811zM591.622047 727.338582q0 8.062992-5.03937 12.598425t-11.086614 4.535433l-128 0q-5.03937 0-10.582677-4.535433t-5.543307-12.598425 5.03937-12.598425 11.086614-4.535433l128 0q6.047244 0 11.086614 4.535433t5.03937 12.598425z"  horiz-adv-x="1024" />

    
    <glyph glyph-name="xuanzhong" unicode="&#58935;" d="M512.284 798c-275.066 0-498-222.934-498-498 0-275.068 222.934-498 498-498 275.068 0 498 222.934 498 498C1010.284 575.064 787.35 798 512.284 798zM512.284-158.16C259.666-158.16 54.124 47.38 54.124 300c0 252.618 205.542 458.16 458.16 458.16S970.444 552.62 970.444 300C970.444 47.38 764.9-158.16 512.284-158.16zM425.648159 62.061952l-227.412982 224.409776 29.972813 30.37393 227.412982-224.409776-29.972813-30.37393ZM424.446378 121.222769l388.657587 393.85887 30.37393-29.972813-388.657587-393.85887-30.37393 29.972813Z"  horiz-adv-x="1024" />

    
    <glyph glyph-name="huidaodingbu" unicode="&#58880;" d="M754.42175 360.369813 534.314727 580.958814c-3.136433 4.727675-7.768941 8.646937-13.719466 10.728342-3.183506 1.249457-6.563486 1.812275-9.993608 1.738597-0.24457 0-0.442068 0.12382-0.697895 0.12382-0.331551 0-0.600681-0.148379-0.932232-0.170892-3.342118 0.047072-6.638187-0.466628-9.711176-1.665942-6.05081-2.105964-10.751878-6.075369-13.912871-10.924817L265.432837 360.369813c-10.201339-10.191106-9.406231-27.53103 1.727341-38.653345 11.144828-11.118222 27.947516-11.412934 38.151925-1.223874 0.806365 0.832971 1.603521 1.372254 2.276856 2.303462l173.826977 173.521009 0.282433-413.372725c-0.159636-1.079588 0-1.959631 0-3.039219 0-13.568017 12.076036-24.591071 27.838022-24.591071s28.54615 11.023054 28.54615 24.591071l0.295735 416.411945 173.862793-173.521009c0.686638-0.931209 1.469468-1.470491 2.304486-2.303462 10.188037-10.18906 26.991748-9.894348 38.136575 1.223874C763.829004 332.838783 764.612856 350.178707 754.42175 360.369813zM865.262184 686.05236c0-13.851473-11.220552-25.082258-25.083282-25.082258L179.665451 660.970102c-13.852496 0-25.083282 11.231809-25.083282 25.082258l0 0c0 13.852496 11.230786 25.083282 25.083282 25.083282l660.513452 0C854.041632 711.135642 865.262184 699.904857 865.262184 686.05236L865.262184 686.05236z"  horiz-adv-x="1024" />

    
    <glyph glyph-name="weibiaoti5" unicode="&#58931;" d="M512 371.828c115.759 0 251.578 93.882 251.578 209.641s-135.82 209.641-251.578 209.641c-115.805 0-251.578-93.836-251.578-209.594s135.82-209.687 251.578-209.687zM805.516 371.828l-293.516-503.063h-41.891l-248.087 503.063c-131.537 0-129.257-29.417-129.257-125.766v-461.172h838.516v461.172c0 92.625-3.072 125.766-125.766 125.766zM386.234 204.125l83.828-251.532h41.937l83.828 251.532c0 0 31.697 166.819-83.828 167.703-161.932 1.257-125.766-167.703-125.766-167.703z"  horiz-adv-x="1024" />

    
    <glyph glyph-name="xiao" unicode="&#59024;" d="M248.72634 567.797186c-33.614585-220.688261-83.980693-380.161323-151.0973-478.475466-7.194866-12.029988-16.807804-16.807804-28.780487-14.390755-9.612938 7.194866-10.79281 16.750499-3.597945 28.780487 64.75584 95.897094 113.885793 253.009388 147.500379 471.2806 2.360767 11.972683 9.555633 17.987676 21.585621 17.987676C246.30929 588.145629 251.087107 579.769868 248.72634 567.797186zM532.934287 711.69962l0-726.707037c0-52.725852-25.182542-81.506339-75.549673-86.34146-59.978023-2.360767-123.55399 7.194866-190.670597 28.780487-14.390755 4.835122-19.224854 14.390755-14.390755 28.780487 4.777817 9.612938 14.390755 12.029988 28.780487 7.194866 148.680251-43.171242 220.630956-37.156248 215.854163 17.987676L496.957911 711.69962c0 14.390755 5.958712 21.585621 17.9887 21.585621C524.502243 733.285241 530.516214 726.090375 532.934287 711.69962zM795.555589 578.589996c64.75584-194.268542 112.703875-359.756597 143.902434-496.463142 2.360767-14.390755-2.418073-24.00267-14.390755-28.780487-12.029988-2.417049-19.224854 3.597945-21.585621 17.987676-38.394449 165.488055-85.162612 328.558038-140.30449 489.268276-4.835122 11.972683-2.418073 20.348444 7.194866 25.182542C782.344706 590.562679 790.721491 588.145629 795.555589 578.589996z"  horiz-adv-x="1024" />

    
    <glyph glyph-name="yingyongzongshu" unicode="&#59261;" d="M414.364429 716 163.921286 716C126.411643 716 96 685.590214 96 648.078714L96 448.571429C96 432.160786 109.303643 418.857143 125.714286 418.857143 142.124929 418.857143 155.428571 432.160786 155.428571 448.571429L155.428571 622.616357C155.428571 641.368857 170.633929 656.571429 189.383643 656.571429L388.903 656.571429C407.6555 656.571429 422.857143 641.366071 422.857143 622.616357L422.857143 423.097929C422.857143 404.345429 407.651786 389.142857 388.903 389.142857L185.142857 389.142857C168.732214 389.142857 155.428571 375.839214 155.428571 359.428571 155.428571 343.017929 168.732214 329.714286 185.142857 329.714286L414.364429 329.714286C451.874071 329.714286 482.285714 360.124071 482.285714 397.635571L482.285714 648.078714C482.285714 685.588357 451.875929 716 414.364429 716ZM860.078714 716 609.635571 716C572.125929 716 541.714286 685.590214 541.714286 648.078714L541.714286 397.6365C541.714286 360.125929 572.124071 329.714286 609.635571 329.714286L860.077786 329.714286C897.588357 329.714286 928 360.124071 928 397.635571L928 648.078714C928 685.588357 897.590214 716 860.078714 716ZM868.571429 423.097929C868.571429 404.345429 853.366071 389.142857 834.617286 389.142857L635.097 389.142857C616.3445 389.142857 601.142857 404.348214 601.142857 423.097929L601.142857 622.616357C601.142857 641.368857 616.348214 656.571429 635.097 656.571429L834.616357 656.571429C853.369786 656.571429 868.571429 641.366071 868.571429 622.616357L868.571429 423.097929ZM414.364429 270.285714 163.921286 270.285714C126.411643 270.285714 96 239.875929 96 202.364429L96-48.077786C96-85.588357 126.409786-116 163.921286-116L414.3635-116C451.874071-116 482.285714-85.590214 482.285714-48.078714L482.285714 202.364429C482.285714 239.874071 451.875929 270.285714 414.364429 270.285714ZM422.857143-22.617286C422.857143-41.369786 407.651786-56.571429 388.903-56.571429L189.383643-56.571429C170.631143-56.571429 155.428571-41.366071 155.428571-22.617286L155.428571 176.903C155.428571 195.6555 170.633929 210.857143 189.383643 210.857143L388.903 210.857143C407.6555 210.857143 422.857143 195.651786 422.857143 176.903L422.857143-22.617286ZM860.078714 270.285714 609.635571 270.285714C572.125929 270.285714 541.714286 239.875929 541.714286 202.364429L541.714286-48.077786C541.714286-85.588357 572.124071-116 609.635571-116L860.077786-116C897.588357-116 928-85.590214 928-48.078714L928 202.364429C928 239.874071 897.590214 270.285714 860.078714 270.285714ZM868.571429-22.617286C868.571429-41.369786 853.366071-56.571429 834.617286-56.571429L635.097-56.571429C616.3445-56.571429 601.142857-41.366071 601.142857-22.617286L601.142857 176.903C601.142857 195.6555 616.348214 210.857143 635.097 210.857143L834.616357 210.857143C853.369786 210.857143 868.571429 195.651786 868.571429 176.903L868.571429-22.617286 868.571429-22.617286Z"  horiz-adv-x="1024" />

    
    <glyph glyph-name="vipbangqianli" unicode="&#58896;" d="M999.747368 106.841263c-22.150737 13.365895-24.360421 42.361263 11.102316 77.985684s17.731368 66.452211-15.575579 82.081684c-33.253053 15.575579-44.301474 40.582737 0 57.936842 39.936 15.575579 39.936 89.141895-2.209684 138.186105C954.853053 507.656421 700.631579 485.344 700.631579 485.344s2.209684 2.209684 2.209684 147.132632c0 144.869053-36.971789 180.547368-107.897263 178.337684-70.979368-2.209684-48.774737-44.570947-90.920421-216.225684C461.877895 422.933895 269.958737 304.796632 269.958737 304.796632l0-378.502737c28.833684-40.097684 114.310737-53.517474 134.251789-62.410105 19.994947-8.946526 223.986526-26.731789 223.986526-26.731789s316.092632 24.522105 331.560421 71.302737c15.575579 46.780632-22.851368 68.661895 24.414316 86.932211C1041.893053 17.699368 1021.898105 93.421474 999.747368 106.841263zM3.125895 311.641263l0-389.766737c0-38.750316 31.258947-70.117053 69.739789-70.117053l142.120421 0L214.986105 381.758316 72.865684 381.758316C34.330947 381.758316 3.125895 350.391579 3.125895 311.641263z"  horiz-adv-x="1078" />

    
    <glyph glyph-name="xiaoxue" unicode="&#59126;" d="M984.615 189.812c0 87.442-57.471 166.691-141.928 198.815-10.578 69.299-45.898 132.928-100.783 180.84C682.123 621.653 604.384 650.394 523 650.394c-158.743 0-291.956-107.572-318.397-253.443-95.414-26.179-162.675-109.667-162.675-205.59 0-118.037 101.185-214.063 225.56-214.063 15.896 0 28.78 12.917 28.78 28.846 0 15.931-12.884 28.848-28.78 28.848-92.636 0-168.002 70.146-168.002 156.371 0 74.717 57.128 139.257 135.837 153.466l21.163 3.817 2.343 21.427C272.719 496.991 386.287 592.703 523 592.703c137.43 0 253.66-100.206 264.613-228.128l1.699-19.821L808.4 339.3c70.973-20.28 118.655-80.354 118.655-149.486 0-86.224-75.364-156.368-168.004-156.368-15.893 0-28.778-12.916-28.778-28.848 0-15.93 12.887-28.846 28.778-28.846l3.72 0c1.021 0 2.032 0.057 3.03 0.161C887.057-20.679 984.615 73.927 984.615 189.812zM516.553 51.375c-29.534 0-53.56-24.082-53.56-53.686 0-29.603 24.025-53.689 53.56-53.689 29.531 0 53.56 24.088 53.56 53.689C570.111 27.293 546.084 51.375 516.553 51.375z"  horiz-adv-x="1024" />

    
    <glyph glyph-name="tubiaolong" unicode="&#59192;" d="M467.2 453.6l25.6 0c12.8-6.4 19.2-12.8 19.2-19.2L512 428c0 0-12.8-6.4-32-6.4-6.4 0-32 6.4-83.2 19.2-83.2-19.2-147.2-32-192-51.2L115.2 338.4 89.6 332 83.2 332C70.4 338.4 64 344.8 64 357.6 64 364 76.8 370.4 83.2 370.4l12.8 0 6.4 0C249.6 428 371.2 453.6 467.2 453.6zM211.2 274.4c12.8 0 25.6-25.6 32-70.4l6.4-12.8 44.8 19.2 6.4 0c6.4-6.4 12.8-12.8 12.8-19.2 0-12.8-19.2-19.2-64-25.6L243.2 165.6c-6.4-32-12.8-102.4-19.2-204.8-6.4-38.4-12.8-70.4-25.6-96L192-141.6 179.2-141.6c-6.4 0-12.8 12.8-19.2 25.6l0 6.4c12.8 96 25.6 198.4 38.4 313.6L192 236 192 242.4C192 268 198.4 274.4 211.2 274.4zM326.4 748c51.2-19.2 83.2-38.4 89.6-51.2C422.4 690.4 422.4 684 422.4 677.6l0-6.4c0-6.4-6.4-19.2-12.8-38.4l12.8-6.4 51.2 6.4 19.2 0c6.4 0 12.8-6.4 19.2-12.8L512 620c0-6.4-12.8-12.8-19.2-12.8L467.2 607.2c-12.8 0-25.6 0-32 6.4-25.6 0-96-12.8-224-44.8L211.2 568.8C198.4 581.6 198.4 588 198.4 588L198.4 594.4c83.2 12.8 128 19.2 140.8 25.6l6.4 12.8L345.6 639.2c0 12.8-12.8 32-32 57.6C307.2 703.2 307.2 709.6 307.2 722.4 307.2 728.8 313.6 741.6 326.4 748zM224 511.2l6.4 0c12.8 0 25.6-12.8 44.8-38.4l6.4-12.8 0-6.4c0-12.8-6.4-19.2-19.2-19.2-12.8 0-25.6 12.8-38.4 38.4L211.2 485.6C211.2 492 211.2 504.8 224 511.2zM332.8 108c0-19.2-12.8-32-44.8-44.8l-6.4-6.4c-12.8 0-19.2 6.4-25.6 12.8l0 6.4C275.2 101.6 294.4 108 332.8 108zM358.4 344.8C358.4 332 345.6 319.2 320 300 307.2 293.6 300.8 293.6 288 293.6L275.2 293.6C262.4 293.6 262.4 300 262.4 300L262.4 306.4c6.4 12.8 32 19.2 70.4 32L358.4 344.8zM377.6 357.6 377.6 357.6c19.2 0 32-12.8 51.2-32l0-70.4 0-160 0-12.8 0-19.2L428.8 44c0-25.6 0-57.6 6.4-96l6.4-38.4C422.4-128.8 403.2-148 390.4-148L384-148 371.2-148c-12.8 25.6-25.6 51.2-44.8 70.4l0 6.4c12.8 0 25.6 6.4 32 25.6 6.4 0 12.8 44.8 12.8 134.4L371.2 210.4 371.2 306.4c0 19.2-6.4 25.6-12.8 25.6L358.4 338.4C358.4 351.2 364.8 351.2 377.6 357.6zM428.8 568.8l6.4 0c19.2 0 32-6.4 38.4-25.6l0-6.4c-32-32-64-51.2-102.4-64L358.4 472.8 345.6 472.8c12.8 38.4 32 64 51.2 83.2C409.6 568.8 416 568.8 428.8 568.8zM544 332l6.4 0C563.2 332 576 319.2 582.4 300l0-19.2 0-6.4L576 172c0-25.6 6.4-38.4 19.2-44.8 57.6 12.8 102.4 25.6 134.4 25.6l6.4 0c6.4-6.4 6.4-12.8 6.4-19.2 0-19.2-38.4-32-108.8-32C595.2 108 576 95.2 576 88.8c0-19.2-6.4-38.4-6.4-57.6 0-51.2 25.6-83.2 70.4-96 19.2-6.4 38.4-6.4 57.6-6.4l19.2 0c64 0 128 12.8 192 38.4 0 19.2 6.4 32 12.8 32 6.4 0 19.2-12.8 38.4-44.8l0-6.4c-12.8-25.6-44.8-51.2-89.6-64-25.6-6.4-76.8-19.2-160-25.6-64 12.8-115.2 25.6-147.2 51.2-25.6 19.2-44.8 32-44.8 44.8L512-32.8C518.4 204 531.2 325.6 544 332zM787.2 504.8 787.2 504.8c19.2 0 25.6-6.4 25.6-19.2l0-6.4c0-19.2-12.8-44.8-38.4-89.6C768 383.2 761.6 364 761.6 351.2l0-6.4c-6.4-12.8-51.2-19.2-128-19.2L608 319.2 608 325.6c12.8 12.8 32 25.6 70.4 38.4 19.2 0 38.4 32 51.2 89.6 0 0 6.4 0 6.4 6.4l6.4 6.4-6.4 0-12.8 6.4c-6.4 0-25.6-12.8-64-32C640 428 633.6 428 620.8 428 601.6 434.4 588.8 440.8 588.8 453.6c12.8 6.4 32 12.8 70.4 19.2 19.2 0 38.4 6.4 64 12.8l12.8 0C755.2 498.4 768 504.8 787.2 504.8zM716.8 268 716.8 268c12.8 0 25.6 0 32-6.4C736 236 704 223.2 652.8 223.2L640 223.2 595.2 229.6 595.2 229.6C640 255.2 678.4 268 716.8 268zM627.2 696.8c12.8 0 25.6-6.4 44.8-19.2l0-38.4c0-51.2-12.8-96-32-134.4C627.2 492 620.8 492 620.8 492 608 504.8 608 524 608 543.2L608 556l6.4 115.2L614.4 696.8 627.2 696.8zM704 56.8l12.8 0c6.4 0 12.8 0 12.8-6.4l0-6.4c0-12.8-25.6-25.6-83.2-44.8l-25.6-6.4c-12.8 0-19.2 6.4-19.2 6.4 0 19.2 25.6 32 83.2 38.4L704 56.8zM774.4 632.8l12.8 0 12.8 0 0-6.4c0-19.2-12.8-32-44.8-44.8l-19.2-6.4c-19.2 0-38.4 6.4-51.2 19.2C704 626.4 736 632.8 774.4 632.8z"  horiz-adv-x="1024" />

    
    <glyph glyph-name="paobu" unicode="&#58930;" d="M511.992325 811.392156c-282.439674 0-511.397273-228.957599-511.397273-511.38704 0-282.443767 228.957599-511.398296 511.397273-511.398296 282.454 0 511.412622 228.954529 511.412622 511.398296C1023.404947 582.435581 794.446325 811.392156 511.992325 811.392156zM511.992325-172.058312C251.276419-172.058312 39.92992 39.27079 39.92992 300.005117 39.92992 560.71386 251.274372 772.058312 511.992325 772.058312c260.708743 0 472.071615-211.344452 472.071615-472.053196C984.065987 39.27079 772.703115-172.058312 511.992325-172.058312zM273.588587 290.286778c15.19405 0.51984 30.448476 0.1361 45.664016 0.1361l0-0.098237c13.693884 0 27.448142-0.691755 41.069371 0.287549 6.875594 0.499373 18.49319-5.378497 18.823718 8.990768 0.229221 10.507308-2.576685 21.170159-14.44499 22.590508-31.697933 3.78214-63.661925 4.111644-95.336322-0.287549-7.644097-1.057075-16.463973-7.339152-13.732769-17.654079C257.743714 296.164648 263.158027 289.9409 273.588587 290.286778zM280.713868 355.42431c24.321942 0.096191 48.871057 1.998517 72.922846-0.575098 29.54592-3.188622 51.173496 6.759961 70.576405 34.728966-50.331315 0-97.16497-0.230244-143.994532 0.153496-12.717649 0.113587-24.705682-1.940189-24.186865-16.48137C256.51063 360.07319 267.846816 355.386448 280.713868 355.42431zM430.779675 219.519014c6.954389 0.057305 17.117866 1.113357 7.952112 10.680247-10.94426 11.429307-20.763906 24.743544-40.953737 23.954575-38.689161-1.537006-77.471442-0.826831-116.215862-0.192382-13.793144 0.232291-26.41051-2.919493-25.892717-17.576307 0.49528-14.136975 13.443174-17.555841 26.985608-17.248849 23.532973 0.536212 47.100738 0.152473 70.653153 0.152473l0 0.153496C379.144668 219.441243 404.965753 219.30719 430.779675 219.519014zM580.07698 136.129792c-17.786085-13.140275-42.798758-5.704932-63.160505-17.308201-6.260587-3.573385-11.469216-8.067746-14.830777-13.178137-17.652032-26.798343-33.882692-54.515614-51.444673-81.389682-10.353812-15.867386-6.374174-29.79356 6.684236-39.533388 13.94971-10.373255 30.91101-10.200316 42.11212 4.91801 31.578206 42.548048 62.140269 85.848227 92.799546 129.048121C600.744695 130.673523 593.252047 134.536504 580.07698 136.129792zM766.561231 365.51104c-11.374048 26.02984-33.270754 13.696953-51.578726 14.753005-17.246803 0.99977-34.941813-18.632359-49.555649-5.686513-12.623505 11.180644-19.999496 29.811979-25.765827 46.487777-7.447623 21.532409-24.739451 36.70804-38.492686 59.164494 48.735981-18.786878 78.069053-1.288343 92.302219 21.820981 16.387225 26.604938 11.886725 61.506842-10.352789 82.024132-22.475897 20.72809-56.362682 23.857361-81.313957 7.451716-31.909757-20.956288-36.426631-47.774073-14.854313-100.92562-34.650171 10.872628-63.349817 27.334555-93.853551 39.378869-12.159948 4.801353-23.706935 16.788361-37.845956 11.006681-37.416168-15.309684-74.683956-31.138184-111.063515-48.714492-22.443152-10.834766-27.220968-26.317389-17.769712-43.566238 7.699356-14.08274 27.140127-18.594497 46.331211-10.219759 16.427134 7.166213 32.980135 14.196327 48.738028 22.686698 26.386974 14.21577 50.306756 14.446014 76.066443-3.495614 16.787338-11.698436 14.368242-18.805298 1.979074-30.581506-28.067242-26.662243-58.029648-51.500954-81.468476-82.658581-17.21201-22.87601-16.402575-46.50415 4.225231-66.215074 25.396413-24.282033 51.980885-47.369867 77.763085-71.26816 7.988951-7.375991 14.982226-14.811334-3.786233-18.306948-25.14468-4.686742-49.865711-11.43033-74.93569-16.560164-18.326391-3.726881-33.347502-20.764929-30.196743-35.728736 3.707438-17.633612 25.546839-28.949332 44.334741-24.512277 49.635467 11.738345 99.274004 23.321148 149.178601 33.750685 25.586748 5.340635 37.57478 30.870078 22.168905 51.462069-14.329357 19.114336-29.734208 37.420261-43.567261 56.860009-32.466436 45.62206-32.193213 45.814442 8.703219 85.732593 22.995737 22.434965 22.798239 22.320355 40.278355-6.878664 7.611352-12.678764 14.100136-28.122501 32.852222-26.625404 36.997636 2.938935 72.804143 12.429077 108.415198 21.977547C766.98488 331.741935 772.365424 352.218292 766.561231 365.51104z"  horiz-adv-x="1024" />

    
    <glyph glyph-name="jinlingyingcaiwangtubiao41" unicode="&#59314;" d="M223.846 283.29c0-35.77 28.998-64.768 64.768-64.768s64.768 28.998 64.768 64.768c0 35.77-28.998 64.768-64.768 64.768-35.77 0-64.768-28.998-64.768-64.768zM441.446 283.29c0-35.77 28.998-64.768 64.768-64.768s64.768 28.998 64.768 64.768c0 35.77-28.998 64.768-64.768 64.768-35.77 0-64.768-28.998-64.768-64.768zM659.046 283.29c0-35.77 28.998-64.768 64.768-64.768s64.768 28.998 64.768 64.768c0 35.77-28.998 64.768-64.768 64.768-35.77 0-64.768-28.998-64.768-64.768z"  horiz-adv-x="1024" />

    
    <glyph glyph-name="1011dongtaixinxisanhengxian" unicode="&#60327;" d="M907.237693 510.890105c-21.74014 46.169529-52.828182 87.602174-92.402503 123.148761-39.455617 35.440164-85.371366 63.253626-136.473231 82.668815-52.81488 20.066011-108.897176 30.240745-166.688393 30.240745-57.790194 0-113.87249-10.17371-166.688393-30.240745-51.101865-19.414165-97.017614-47.227628-136.473231-82.668815-39.573297-35.546587-70.662363-76.980255-92.402503-123.148761-22.571065-47.931662-34.014698-98.859565-34.014698-151.367453s11.444657-103.435791 34.014698-151.368476c21.74014-46.168506 52.828182-87.60115 92.402503-123.148761 39.455617-35.440164 85.371366-63.253626 136.473231-82.668815 52.815903-20.066011 108.898199-30.240745 166.688393-30.240745 51.606355 0 101.950973 8.142447 149.816121 24.213471l142.767588-169.20982L804.257274 75.827381c41.693588 34.960233 74.774007 76.28543 98.385774 122.92568 25.619494 50.608631 38.609343 104.699574 38.609343 160.768567C941.252391 412.030539 929.808758 462.958442 907.237693 510.890105zM779.249717 94.999023l-5.691629-4.607948 0-179.300642-102.314247 121.264854-10.058077-3.640923c-47.5162-17.198707-97.818863-25.919323-149.511175-25.919323-219.943294 0-398.878616 160.027693-398.878616 356.727611S291.731294 716.249239 511.673565 716.249239s398.87964-160.02667 398.87964-356.726587C910.553205 258.973608 862.695221 162.557698 779.249717 94.999023zM288.75245 481.063799l445.843254 0 0-30.699186-445.843254 0 0 30.699186ZM288.75245 369.198012l445.843254 0 0-30.699186-445.843254 0 0 30.699186ZM288.75245 257.332225l445.843254 0 0-30.699186-445.843254 0 0 30.699186Z"  horiz-adv-x="1024" />

    
    <glyph glyph-name="jia" unicode="&#58911;" d="M0 812l0-1024 1024 0L1024 812 0 812zM759.4752 257.3248l-204.8 0 0-204.8L486.4 52.5248l0 204.8-204.8 0L281.6 325.6l204.8 0 0 204.8 68.2752 0 0-204.8 204.8 0L759.4752 257.3248z"  horiz-adv-x="1024" />

    
    <glyph glyph-name="dan" unicode="&#58882;" d="M851.284-158.394h-673.008c-30.981 0-56.084 25.098-56.084 56.078l0 785.177c0 30.975 25.103 56.089 56.084 56.089h504.762l224.33-224.348v-616.919c0-30.981-25.115-56.078-56.084-56.078zM626.948 458.536v168.247h-392.593v-673.019h560.845l-0 504.772h-168.252zM626.948 178.105h56.089v-56.096h-56.089v56.096zM346.528 346.368h336.51v-56.101l-336.51 0v56.101zM346.528 514.603h168.258v-56.067l-168.258 0v56.067zM514.786 122.021h-168.258v56.084h168.258v-56.084z"  horiz-adv-x="1024" />

    
    <glyph glyph-name="3" unicode="&#58883;" d="M849.464383 332.885991c0 0-127.632889-27.161616-162.91444-36.703947-34.970466-9.461489-78.358649 59.278081-89.998757 61.742203-7.454786-21.527292-31.466666-84.854597-45.86663-127.799688 22.251793 0.661056 137.564076-34.31862 141.760654-54.688553 4.79419-20.643156 58.69582-243.843634 58.69582-243.843634s22.861684-47.959292-42.004673-65.505923c-64.921615-17.565051-67.810409 35.793204-67.810409 35.793204s-45.220924 171.407881-49.25889 181.759647c-3.739161 10.328229-88.217181 27.743878-107.571994 22.505573-19.527752-5.28026-61.270459-151.438061-102.433974-161.40711-52.936653-12.822027-208.022801 81.351819-208.022801 81.351819s-61.271482 15.161305-48.740074 72.644507c12.755512 57.06774 72.169693 41.508369 72.169693 41.508369s109.788475-60.3546 122.455983-53.272297c12.840446 7.18361 20.060895 48.795333 38.807864 89.200578 0.756223 15.20019 43.898813 136.227638 43.898813 136.227638s23.836895 80.545454 14.351869 85.585237c-13.08911 6.960529-26.808576-7.899924-33.991162-20.159132-7.182586-12.259208-35.650965-62.584384-83.288938-128.232546-42.349527-58.380642-117.813243-4.16588-86.422302 50.404993 26.091238 45.37135 95.548146 175.22072 145.500838 199.652156 50.325176 24.63712 137.018653 38.338167 210.796984 21.002336 74.112951-16.927531 126.184911-100.915387 140.697439-112.036679 14.239306-10.667967 114.074082 21.638833 114.074082 21.638833s56.899918 19.788695 70.968331-32.146141C909.471059 345.837978 849.464383 332.885991 849.464383 332.885991L849.464383 332.885991 849.464383 332.885991zM615.793436 546.927879c-52.354392-14.160511-105.57757 16.153912-119.620401 67.983347-13.96813 51.538817 16.581654 104.947214 68.936045 119.112841 52.219315 14.123672 105.71367-16.549931 119.6818-68.082608C698.834734 614.105884 668.026054 561.056668 615.793436 546.927879L615.793436 546.927879 615.793436 546.927879zM615.793436 546.927879"  horiz-adv-x="1024" />

    
    <glyph glyph-name="fav" unicode="&#58891;" d="M512 667.82946l95.952352-273.571702 287.868313-7.424086L667.254993 210.344051l81.95557-278.17351L512 96.676222 274.776134-67.82946l81.95864 278.17351-228.555439 176.490643 287.865243 7.424086L512 667.82946z"  horiz-adv-x="1024" />

    
    <glyph glyph-name="yey2" unicode="&#59026;" d="M692.305017 325.612331c4.303003 4.372587 8.500605 8.909927 12.58155 13.619182 32.313963-13.014408 143.113465-48.397267 253.915014 23.683399 0 0-163.335019-24.693402-208.117968 45.415352 0.194428 0.387833 0.396019 0.76748 0.590448 1.156336 0 0-0.277316-0.284479-0.805342-0.817622-0.171915 0.272199-0.348947 0.542352-0.515746 0.817622l-6.086625-7.395434c-19.635199-19.301602-53.807487-57.455573-111.797225-84.190471-52.462862-24.186865-122.703623-34.045397-180.415023-33.725102-142.66935 0.796132-203.471135 79.157851-237.352803 101.889575-30.978549 16.758686-33.672914 27.944446-73.284073 9.154497-52.711526-25.00551-77.172637-88.336908-77.172637-88.336908 77.172637 31.652907 132.323725 7.499811 146.615219-2.439562 0.839111-0.613984 1.673106-1.233084 2.518357-1.838881 0.001023 0 0.008186-0.00614 0.008186-0.00614l0.001023 0c11.332093-8.116865 23.194258-15.530718 35.517935-22.248723-5.67014-32.030507-43.715641-49.421596-43.715641-49.421596 53.851489 8.357342 68.873624 20.702508 79.455633 32.452109 11.996219-4.9088 24.342408-9.215896 36.991496-12.912078-3.810792-39.07904-44.678572-67.962881-44.678572-67.962881 54.650691 9.474792 74.792427 42.987047 81.4388 59.106166 14.387685-2.756787 29.093619-4.771677 44.062542-6.03239 11.356652-31.475875-6.082532-74.785264-6.082532-74.785264 27.882024 22.267143 40.907689 59.33334 44.99375 73.224722 13.285584 0.029676 26.245757 0.51984 38.884612 1.471514 6.459109-14.147208 24.996301-50.79692 52.653197-72.882937 0 0-18.418488 35.052331-10.157337 78.076216 10.126638 1.74576 20.019962 3.832282 29.65746 6.288217 9.101285-13.409404 38.175461-45.149293 112.465444-51.92665 0 0-60.956304 19.512403-59.33948 70.27146 9.116635 4.071735 17.958 8.553817 26.508747 13.461593 14.896268-13.270235 68.733431-50.658773 195.506742-42.017976C827.150168 236.7607 715.285404 253.611483 692.305017 325.612331z"  horiz-adv-x="1024" />

    
    <glyph glyph-name="fenxiang" unicode="&#58954;" d="M768 110.999c17.328 0 33.5-3.172 48.5-9.5 15.001-6.343 28.156-15.172 39.5-26.5 11.328-11.344 20.156-24.5 26.5-39.5 6.329-15.001 9.5-31.172 9.5-48.5 0-17.344-3.172-33.5-9.5-48.5-6.343-15.001-15.172-28.172-26.5-39.5-11.344-11.344-24.5-20.172-39.5-26.5-15.001-6.343-31.172-9.5-48.5-9.5-17.344 0-33.5 3.156-48.5 9.5-15.001 6.329-28.172 15.156-39.5 26.5-11.344 11.328-20.172 24.5-26.5 39.5-6.343 15.001-9.5 31.156-9.5 48.5 0 2.656 0 5.156 0 7.5 0 2.329 0.329 4.5 1.001 6.5 0 2.656 0.156 5.156 0.5 7.5 0.329 2.329 0.828 4.5 1.5 6.5l-304 177.001c-6-5.344-12.172-10.172-18.5-14.5-6.343-4.343-13.172-7.844-20.5-10.5-7.344-3.344-15.001-5.671-23.001-7.001-8-1.344-16.343-2-25.001-2-17.344 0-33.844 3.328-49.5 10-15.671 6.656-29.172 15.657-40.5 27.001-12 12-21.344 25.657-28 41.001-6.672 15.328-10 32-10 50 0 17.328 3.328 33.828 10 49.5 6.656 15.657 16 29.156 28 40.5 11.328 12 24.828 21.328 40.5 28 15.657 6.656 32.156 10 49.5 10 8.656 0 17.001-0.844 25.001-2.5 8-1.671 15.657-4.172 23.001-7.5 7.328-2.672 14.156-6.172 20.5-10.5 6.329-4.343 12.5-9.172 18.5-14.5l301.001 176c-0.672 2-1.172 4.329-1.5 7.001-0.343 2.656-0.844 5.001-1.5 7.001 0 2.656-0.172 5.328-0.5 8-0.343 2.656-0.5 5.328-0.5 8 0 17.328 3.328 33.828 10 49.5 6.656 15.657 16 29.156 28 40.5 11.328 11.328 24.828 20.5 40.5 27.5 15.657 7.001 32.156 10.5 49.5 10.5 17.328 0 33.828-3.5 49.5-10.5 15.657-7.001 29.156-16.172 40.5-27.5 12-11.344 21.328-24.844 28-40.5 6.656-15.671 10-32.172 10-49.5 0-18-3.344-34.844-10-50.5-6.672-15.671-16-29.172-28-40.5-11.344-11.344-24.844-20.343-40.5-27.001-15.671-6.672-32.172-10-49.5-10-8.672 0-17.001 0.656-25.001 2-8 1.328-15.671 3.657-23.001 7.001-7.344 2.656-14.172 6.156-20.5 10.5-6.343 4.329-12.5 9.156-18.5 14.5l-300.999-175.001c0.656-2.672 1.156-5.172 1.5-7.5 0.329-2.343 0.828-4.844 1.5-7.5 0-2.672 0.156-5.172 0.5-7.5 0.329-2.343 0.5-4.844 0.5-7.5 0-2.672-0.172-5.344-0.5-8-0.343-2.672-0.5-5.344-0.5-8-0.672-2-1.172-4.343-1.5-7.001-0.343-2.672-0.844-5.001-1.5-7.001l304-177.001c5.328 4.656 11.328 9.001 18 13.001 6.656 4 13.328 7.657 20 11.001 7.328 2.656 14.828 4.656 22.5 6 7.657 1.327 15.5 1.999 23.5 1.999z"  horiz-adv-x="1024" />

    
    <glyph glyph-name="xiaoyu" unicode="&#59004;" d="M821.077333 521.312c-55.210667 135.765333-188.330667 231.509333-343.893333 231.509333-204.970667 0-371.157333-166.186667-371.157333-371.2 0-8.618667 0.384-17.109333 0.981333-25.6-61.226667-30.293333-103.381333-93.397333-103.381333-166.357333 0-95.957333 72.874667-174.933333 166.272-184.576l0-1.066667 588.970667 0 0 0.085333c144.938667 0 262.4 117.461333 262.4 262.357333C1021.312 389.898667 935.978667 493.365333 821.077333 521.312zM780.16 56.373333c-4.906667-0.682667-9.856-1.152-14.933333-1.152l-576 0c-6.570667 0-13.013333 0.682667-19.285333 1.792l0-0.341333c-65.066667 9.344-115.114667 65.194667-115.114667 132.864 0 45.141333 22.272 85.034667 56.362667 109.397333l-0.085333 0-0.085333 0.384c0.682667 0.213333 1.28 0.512 1.962667 0.768 6.656 4.608 13.738667 8.576 21.162667 11.904 19.754667 16.512 26.026667 42.581333 22.101333 71.893333l1.066667 0.256c1.365333 175.573333 144.042667 317.525333 319.914667 317.525333 123.861333 0 231.210667-70.4 284.373333-173.354667l0.042667 0c0-0.042667 0-0.085333 0-0.128 6.613333-12.842667 12.458667-26.154667 17.322667-39.936 5.077333-5.717333 11.093333-10.538667 17.749333-14.165333 98.517333-17.877333 173.226667-103.978667 173.226667-207.616C969.941333 157.024 886.741333 67.04 780.16 56.373333zM526.805333-55.328c-12.245333 7.082667-27.904 2.858667-34.986667-9.386667l-35.2-60.970667c-7.082667-12.245333-2.858667-27.904 9.386667-34.986667 12.245333-7.082667 27.904-2.858667 34.986667 9.386667l35.2 60.970667C543.274667-78.069333 539.050667-62.410667 526.805333-55.328z"  horiz-adv-x="1024" />

    
    <glyph glyph-name="xiaomeijimeixuanzhong" unicode="&#58894;" d="M506.112 647.392c-222.663111 0-403.171556-180.48-403.171556-403.114667 0-222.663111 180.508444-403.171556 403.171556-403.171556s403.171556 180.508444 403.171556 403.171556C909.283556 466.940444 728.775111 647.392 506.112 647.392zM506.112-118.56c-200.391111 0-362.837333 162.446222-362.837333 362.837333 0 200.362667 162.446222 362.808889 362.837333 362.808889s362.837333-162.446222 362.837333-362.808889C868.949333 43.886222 706.503111-118.56 506.112-118.56z"  horiz-adv-x="1024" />

    
    <glyph glyph-name="sanheng" unicode="&#58914;" d="M62.389444 18.992955 62.389444 131.395978l899.220089 0 0-112.403023L62.389444 18.992955zM62.389444 356.201l899.220089 0 0-112.403023L62.389444 243.797977 62.389444 356.201zM62.389444 581.006022l899.220089 0 0-112.401999L62.389444 468.604022 62.389444 581.006022z"  horiz-adv-x="1024" />

    
    <glyph glyph-name="jia01" unicode="&#58900;" d="M-4.0e-06 812l0-1024 1024 0L1023.999996 812-4.0e-06 812zM983.067748-171.067752 40.932244-171.067752 40.932244 771.067752l942.135504 0L983.067748-171.067752zM287.83147 279.533876l203.702402 0 0-203.702402c0-11.30344 9.162684-20.466124 20.466124-20.466124s20.466124 9.162684 20.466124 20.466124L532.46612 279.533876l203.702402 0c11.30344 0 20.466124 9.162684 20.466124 20.466124s-9.162684 20.466124-20.466124 20.466124L532.46612 320.466124 532.46612 524.168526c0 11.30344-9.162684 20.466124-20.466124 20.466124s-20.466124-9.162684-20.466124-20.466124l0-203.702402L287.83147 320.466124c-11.30344 0-20.466124-9.162684-20.466124-20.466124S276.52803 279.533876 287.83147 279.533876z"  horiz-adv-x="1024" />

    
    <glyph glyph-name="daijinquan" unicode="&#58953;" d="M505.856 775.136C243.712 775.136 30.72 562.144 30.72 300s212.992-475.136 475.136-475.136 475.136 212.992 475.136 475.136S768 775.136 505.856 775.136zM765.1328 143.7376c-22.528 7.9872-43.6224 17.8176-63.488 29.0816-2.8672-27.8528-5.5296-52.8384-7.7824-74.9568-8.3968-61.6448-46.08-92.5696-113.0496-92.5696-35.0208 0-66.9696 0.4096-95.4368 1.2288-2.8672 16.9984-8.3968 41.984-16.9984 74.9568L563.2 76.768c30.9248 0 48.5376 12.6976 52.6336 38.0928 1.6384 12.9024 3.6864 31.5392 6.144 56.1152l-160.768 0c-12.0832-44.6464-30.5152-79.6672-55.0912-104.6528-34.2016-31.744-84.1728-57.9584-149.9136-78.6432-14.5408 24.9856-29.696 49.152-45.2608 72.4992 62.464 13.7216 107.9296 32.1536 136.6016 55.7056 16.1792 14.5408 28.0576 32.768 35.6352 55.0912l-58.5728 0c-17.408-9.216-35.6352-18.2272-55.0912-26.624-16.1792 24.576-32.9728 47.7184-50.7904 69.4272 63.6928 24.9856 114.4832 52.6336 152.3712 82.7392l-157.0816 0 0 71.2704 220.5696 0c5.3248 10.0352 11.0592 24.9856 17.6128 44.6464L239.8208 412.4352l0 68.8128 92.5696 0c-18.8416 21.7088-38.2976 43.008-57.9584 64.1024l53.8624 43.4176c25.8048-24.1664 51.8144-50.3808 78.0288-78.6432l-35.6352-29.0816 91.3408 0c2.8672 29.4912 5.3248 65.7408 7.168 108.7488l83.3536-2.4576c-2.8672-40.7552-5.7344-76.1856-8.3968-106.2912l80.2816 0-29.696 22.3232c26.2144 27.4432 49.7664 56.1152 70.656 86.4256l65.9456-41.7792c-18.8416-24.1664-37.4784-46.4896-55.7056-67.1744l94.208 0 0-68.8128L535.3472 412.0256c-3.2768-17.408-6.7584-32.1536-10.8544-44.6464L800.768 367.3792l0-71.2704-144.384 0c41.1648-37.888 91.7504-63.6928 151.7568-77.4144C795.0336 200.4672 780.6976 175.2768 765.1328 143.7376zM485.1712 296.7232c-15.36-19.6608-33.792-38.7072-55.5008-56.7296l186.1632 0c-16.5888 16.9984-31.744 35.84-45.8752 56.7296L485.1712 296.7232z"  horiz-adv-x="1024" />

    
    <glyph glyph-name="iconfont121005" unicode="&#58948;" d="M1161.619394 279.395879l105.968485 0 0-156.672-105.968485 0 0 156.672ZM1308.578909 279.395879l105.968485 0 0-156.672-105.968485 0 0 156.672ZM1308.578909 458.254545l105.968485 0 0-141.839515-105.968485 0 0 141.839515ZM1161.619394 458.254545l105.968485 0 0-141.839515-105.968485 0 0 141.839515ZM3064.428606 651.976727c-3.816727 66.125576-40.618667 102.058667-110.498909 107.644121L485.655273 759.124364c-7.19903 0-15.453091-0.961939-24.482909-2.854788-9.091879-1.830788-16.539152-4.189091-22.372848-7.105939-3.630545-0.775758-9.991758-5.337212-19.021576-13.684364-9.091879-8.409212-13.932606-13.684364-14.677333-15.887515L74.689939 387.07103c-7.230061-7.261091-14.118788-16.725333-20.604121-28.423758-6.547394-11.636364-9.743515-24.731152-9.681455-39.284364 0.775758-15.266909 4.592485-28.206545 11.574303-38.756848 6.919758-10.488242 14.056727-20.790303 21.348848-30.968242 53.27903-54.365091 101.748364-104.013576 145.501091-148.976485 18.897455-18.773333 37.329455-37.453576 55.202909-55.947636 17.811394-18.556121 34.257455-35.529697 49.152-51.137939 14.956606-15.515152 27.585939-28.423758 37.763879-38.539636l19.704242-19.580121c10.922667-10.922667 22.621091-19.580121 34.971152-26.065455s24.234667-11.760485 35.467636-15.701333c11.326061-3.940848 20.976485-6.671515 28.982303-8.129939 8.005818-1.396364 13.467152-2.110061 16.35297-2.110061l41.394424 0.124121c26.189576 0.062061 60.167758 0 101.996606-0.248242 41.828848-0.186182 89.212121 0.124121 142.30497 0.961939l1749.674667-0.558545c128.651636-0.372364 274.432-0.310303 437.21697 0.248242 10.24 0.062061 20.542061 2.420364 31.092364 7.13697 10.550303 4.778667 20.48 11.139879 29.944242 19.207758 9.464242 8.005818 17.035636 17.43903 22.776242 28.423758s9.340121 22.900364 10.798545 35.995152L3064.428606 651.976727zM384.744727 252.802909c-18.835394-18.959515-41.518545-28.672-68.049455-29.137455-26.530909-0.434424-49.214061 8.781576-68.173576 27.648-18.959515 18.773333-28.299636 41.518545-27.989333 68.080485 0.248242 26.530909 9.805576 49.276121 28.672 68.235636s41.270303 28.485818 67.459879 28.547879c26.189576 0.124121 48.717576-9.278061 67.708121-28.113455s28.485818-41.332364 28.547879-67.521939C412.951273 294.290424 403.611152 271.700364 384.744727 252.802909zM2341.391515 612.630303 2384.120242 604.09697c-7.043879-18.432-14.739394-35.87103-23.086545-52.410182l199.121455 0 0-35.312485c-48.996848-116.611879-146.245818-190.277818-291.684848-221.028848-4.933818 13.312-12.691394 27.368727-23.334788 42.139152 54.892606 8.905697 102.337939 24.576 142.398061 47.010909-24.669091 23.738182-49.18303 44.528485-73.479758 62.370909l27.368727 27.896242c28.485818-20.697212 55.916606-43.101091 82.292364-67.211636 37.981091 28.299636 67.521939 64.170667 88.591515 107.675152l-170.914909 0c-21.845333-36.460606-46.917818-67.801212-75.217455-93.990788-10.643394 11.791515-22.031515 21.441939-34.195394 29.075394C2280.230788 491.301818 2316.691394 545.418667 2341.391515 612.630303zM2067.952485 572.166788c30.378667-23.552 58.492121-48.438303 84.309333-74.627879l-31.340606-30.192485c-28.485818 31.154424-55.420121 56.785455-80.86497 76.924121L2067.952485 572.166788zM1105.237333 457.66497l-66.094545 0 0-114.781091c22.031515 6.857697 43.101091 13.591273 63.239758 20.231758-0.775758-10.643394-1.148121-25.258667-1.148121-43.876848-21.441939-6.826667-42.139152-13.591273-62.091636-20.200727l0-178.579394c0-41.022061-18.618182-61.905455-55.823515-62.681212-13.684364-0.403394-30.564848-0.403394-50.703515 0-1.892848 17.842424-4.375273 33.605818-7.385212 47.259152 15.949576-2.265212 31.899152-3.413333 47.848727-3.413333 15.173818 0 22.776242 8.378182 22.776242 25.072485l0 157.820121c-24.110545-8.192-47.104-16.166788-68.949333-23.924364l-6.268121 47.290182c26.003394 7.385212 51.075879 14.708364 75.186424 21.907394l0 127.875879-68.949333 0 0 39.346424 68.949333 0L995.824485 606.951758l43.287273 0 0-109.940364 66.094545 0L1105.206303 457.66497zM1455.569455 56.629333l-41.022061 0 0 27.896242-252.928 0 0-27.896242-41.022061 0L1120.597333 496.421818l146.959515 0L1267.556848 607.510303l41.022061 0 0-111.088485 146.990545 0L1455.569455 56.629333zM2173.331394 438.612364 2173.331394 608.627394l44.435394 0 0-324.701091-44.435394 0 0 109.102545c-31.154424-14.056727-76.334545-34.474667-135.571394-61.253818l-14.832485 44.993939C2077.416727 397.497212 2127.561697 418.101333 2173.331394 438.612364zM2556.152242 53.216c-116.208485 18.990545-199.68 69.507879-250.352485 151.552-39.315394-80.896-124.090182-133.709576-254.355394-158.378667-7.602424 12.908606-16.911515 27.337697-27.896242 43.287273 126.076121 19.393939 205.358545 61.160727 237.816242 125.331394l-226.428121 0 0 39.315394 243.805091 0c4.189091 11.977697 7.788606 24.700121 10.829576 38.167273l46.731636 0c-2.854788-13.312-6.17503-26.034424-9.960727-38.167273l253.207273 0 0-39.315394-232.727273 0c50.14497-69.290667 130.947879-107.457939 242.408727-114.470788C2577.780364 85.704727 2566.795636 69.941333 2556.152242 53.216z"  horiz-adv-x="3104" />

    
    <glyph glyph-name="dingwei" unicode="&#58884;" d="M536.380952 763.286857C334.409143 763.286857 170.666667 596.96 170.666667 391.769905s365.714286-603.721143 365.714286-603.721143S902.095238 186.57981 902.095238 391.769905 738.352762 763.286857 536.380952 763.286857zM536.380952 298.878476c-75.776 0-137.167238 62.366476-137.167238 139.312762S460.604952 577.504 536.380952 577.504c75.727238 0 137.167238-62.366476 137.167238-139.312762S612.10819 298.878476 536.380952 298.878476z"  horiz-adv-x="1024" />

    
    <glyph glyph-name="faxian" unicode="&#59027;" d="M511.466 626.431c169.452 0 315.308-99.391 383.565-242.84h66.514c-72.089 177.91-246.292 303.526-450.079 303.526-203.755 0-377.958-125.617-450.047-303.526h66.515c68.256 143.449 214.111 242.84 383.532 242.84zM511.466 140.752c-169.421 0-315.277 99.391-383.532 242.84h-66.515c72.088-177.941 246.291-303.558 450.047-303.558 203.786 0 377.99 125.617 450.079 303.558h-66.514c-68.257-143.449-214.111-242.84-383.565-242.84zM349.594 383.576c0-89.412 72.474-161.886 161.885-161.886 89.413 0 161.886 72.474 161.886 161.886 0 89.413-72.473 161.886-161.886 161.886-89.412 0-161.885-72.473-161.885-161.886zM612.678 383.576c0-55.88-45.32-101.198-101.199-101.198s-101.166 45.318-101.166 101.198c0 55.88 45.287 101.199 101.166 101.199s101.199-45.319 101.199-101.199z"  horiz-adv-x="1024" />

    
    <glyph glyph-name="faxian-on" unicode="&#59028;" d="M945.724 384.069c0-83.503-178.842-261.637-433.701-261.637-248.372 0-433.701 175.202-433.701 261.637 0 86.422 186.128 261.356 433.701 261.356 256.862-0.001 433.762-174.935 433.701-261.357zM512.405 597.701c-115.427 0-208.998-95.714-208.998-213.774 0-118.061 93.57-213.774 208.998-213.774 115.462 0 209.036 95.714 209.036 213.774-0.001 118.060-93.574 213.774-209.036 213.774zM512.023 520.406c-73.507 0-133.097-60.94-133.097-136.122 0-75.173 59.59-136.125 133.097-136.125s133.073 60.952 133.073 136.125c0 75.182-59.566 136.122-133.073 136.122z"  horiz-adv-x="1024" />

    
    <glyph glyph-name="yanjing" unicode="&#59029;" d="M875.715257 359.745596c-0.088004 0.113587-174.226067 224.874607-367.58182 217.71351 0 0-2.143826 0.067538-6.242168-0.118704-9.419534-0.320295-18.644639-1.351787-27.610848-3.055592-57.588603-9.416464-182.939519-46.439682-331.467297-191.253882 0 0-10.233062-11.256368 0-28.652574 0 0 355.273493-343.830883 650.822742-35.815717l-0.246617 0.261966c3.957125 4.210905 6.386454 9.874905 6.386454 16.110933 0 12.997012-10.538007 23.536043-23.536043 23.536043-5.736655 0-10.993378-2.056845-15.077394-5.468548l-1.295506 1.375324c0 0-202.614627-279.362592-559.748491 11.256368 0 0-10.233062 8.077979 3.069919 18.365276 0 0 72.064292 61.498656 154.23885 107.526969-12.235672-22.050202-19.162432-47.115064-19.162432-73.703629 0-88.166015 76.05314-159.635767 169.868829-159.635767 93.816712 0 169.868829 71.469752 169.868829 159.635767 0 23.985274-5.63944 46.729278-15.7231 67.141166 50.03558-31.713282 110.837364-81.235163 180.294272-158.511153 4.311189-4.839215 10.587126-7.890714 17.578354-7.890714 12.998035 0 23.536043 10.536984 23.536043 23.536043C883.686812 349.128795 880.600521 355.434407 875.715257 359.745596zM508.133438 294.731884c-72.339562 0-130.983193 55.109132-130.983193 123.092479 0 67.981301 58.643632 123.092479 130.983193 123.092479 72.340585 0 130.983193-55.111179 130.983193-123.092479C639.116631 349.839992 580.474023 294.731884 508.133438 294.731884z"  horiz-adv-x="1024" />

    
    <glyph glyph-name="meiyan" unicode="&#58902;" d="M858.066902 11.080854c-2.581947 7.74584-51.294671 20.483443-51.294671 20.483443-43.548832 17.901496-43.548832 76.769877 0 94.843503 0 0 46.130778 12.737603 51.294671 20.483443 7.74584 15.31955 20.483443 48.712725 20.483443 48.712725 7.74584 20.483443 25.647336 30.811229 40.966885 30.811229 0 71.778114 0 143.384098 0 215.162212 0 33.221046-5.163893 66.614221-10.327786 97.42545-38.384939 192.096823-225.489998 353.554547-455.97176 330.489158-71.778114-7.74584-135.810388-30.811229-192.096823-66.614221l0 0c30.811229-12.737603 89.67961-35.802992 89.67961-35.802992 43.548832-17.901496 43.548832-76.769877 0-94.843503 0 0-87.097663-28.229282-89.67961-35.802992-12.737603-30.811229-35.802992-89.67961-35.802992-89.67961-17.901496-43.548832-76.769877-43.548832-94.843503 0l-28.057152 68.851908c-23.065389-53.876618-33.221046-112.744999-33.221046-174.195327 0-130.646495 0-261.29299 0-391.939486 0-94.843503 58.868381-153.711884 156.293831-153.711884l217.744159 0c-15.31955 5.163893-30.811229 10.327786-46.130778 17.901496-138.392335 64.032274-205.006556 233.235838-184.523113 381.783829 2.581947 17.901496 10.327786 23.065389 28.229282 25.647336 125.482602 12.737603 379.201883 64.032274 407.259035 184.523113 2.581947 15.31955 5.163893 28.229282 7.74584 43.548832 5.163893-5.163893 7.74584-10.327786 7.74584-15.31955C806.94436 354.479744 781.469154 282.87376 781.469154 293.029417c5.163893-48.712725 5.163893-97.42545-7.74584-145.966045-30.811229-122.900656-94.843503-215.162212-225.489998-253.547151l110.163053 0c35.802992 0 74.360061 0 110.163053 0 51.294671 0 94.843503 20.483443 120.318709 53.876618-5.163893 5.163893-7.74584 10.327786-10.327786 15.31955C878.722474-37.631871 863.230795-4.410825 858.066902 11.080854zM952.910405 108.334174 924.681123 177.530341 896.62397 108.334174 827.427803 80.277021 896.62397 52.047739 924.681123-17.148428 952.910405 52.047739 1022.106573 80.277021ZM279.194486 182.694234c79.351824 58.868381 171.61338 0 171.61338 0C358.54631 310.758783 279.194486 182.694234 279.194486 182.694234zM553.39721 182.694234c79.351824 58.868381 171.61338 0 171.61338 0C632.749033 310.758783 553.39721 182.694234 553.39721 182.694234zM179.35922 564.305934 222.908052 674.296857 333.071104 717.845688 222.908052 761.39452 179.35922 871.557573 135.810388 761.39452 25.647336 717.845688 135.810388 674.296857Z"  horiz-adv-x="1025" />

    
    <glyph glyph-name="paotui" unicode="&#58901;" d="M354.959338 763.366214m-76.466556 0a74.725 74.725 0 1 0 152.933111 0 74.725 74.725 0 1 0-152.933111 0ZM118.673843 648.665869c-4.892427 2.717901-64.326051 19.207457-55.447846-43.850717s147.316184-143.149281 155.470911-144.236032 31.891338 3.261277 50.374294 15.582907c0 0 82.990133 37.689391 98.210789 53.273321l71.030753-175.402869c0 0-122.310673-24.462135-138.074705-145.686057l2.717901-178.673355c0 0-38.59604 2.545986-59.252499-51.27071s61.9704-51.098795 82.084507-40.770566c20.113083 10.328229 28.26781 3.805676 81.540108 47.293119l-3.261277 222.877113c0 0 31.573089 46.206368 113.907283 51.642171 0 0-13.340843-126.858246 92.662423-131.923612 106.002242-5.065366 159.818939 0 159.818939 0l27.723412-30.614252c0 0 10.328229-67.214844 51.098795-65.136509s26.63666 31.976272 26.63666 31.976272l-0.543376 70.125127c0 0 3.805676 58.165748-94.042863 74.473155-97.848539 16.308431-183.194322-29.354562-185.368848 93.499487s-27.136034 203.307406-77.985142 282.674011c0 0 68.743664 5.435803 114.950032-7.066953 46.206368-12.502755 41.313941-46.749744 76.647681-160.363338l16.308431 22.287609 30.985712 4.349051 13.046131 24.217564 34.790364 16.553001c0 0-81.81947 106.201787-89.694835 122.310673-4.405333 9.010211-15.373129 25.592888-37.237089 38.052664-6.78452 3.866051-24.426319 11.840676-58.436924 16.308431-54.764278 7.192819-133.3808 10.328229-138.074705 10.328229-7.610328 0-101.109816-10.328229-202.76403-96.217389-30.819936-26.990724-56.724932-31.593556-78.822207-11.95938-13.4575 11.957333-23.312962 24.362874-33.974789 35.33374C138.072659 627.077178 123.56627 645.947967 118.673843 648.665869zM710.200086 389.28835l128.794759 74.816246 74.816246-128.794759-128.794759-74.816246-74.816246 128.794759ZM858.738246 475.574709l22.562863 13.106657 73.728094-126.921526-22.562863-13.106657-73.728094 126.921526ZM667.894586 364.712555l22.562863 13.106657 73.728094-126.921526-22.562863-13.106657-73.728094 126.921526Z"  horiz-adv-x="1024" />

    
    <glyph glyph-name="shoucang" unicode="&#59022;" d="M721.785957 10.246621c-1.447978 0-2.907213 0.045025-4.379751 0.135076-11.918447 0.731664-22.61916 4.282536-28.854165 7.446599L509.905292 105.677087l-179.902346-87.899956c-13.761422-6.888897-49.327452-13.997805-72.54627 6.815219-19.673062 15.111163-29.602202 40.421618-25.372877 65.165162l0.12689 0.691755 36.84107 189.357695L127.839597 410.301016l-0.272199 0.26299c-18.451234 17.913998-25.210172 45.239344-17.232476 69.642127 7.806803 24.238031 29.005614 42.297338 54.157457 46.185902l196.543352 35.733852 87.99717 177.191608c11.668761 23.327288 34.995025 37.769208 60.914348 37.769208 25.701358 0 49.574069-14.853289 60.854996-37.849026l87.952144-177.00946 196.534142-34.530444c25.518187-3.892657 46.281069-21.551852 54.271044-46.201252 7.986905-24.432459 1.264806-51.740408-17.137309-69.598124l-0.442068-0.420579L750.790548 279.817196l35.817764-189.965539c4.288676-24.626887-5.622044-49.951669-25.327852-65.190745C750.912321 15.278217 737.102804 10.246621 721.785957 10.246621zM716.010417 72.74607c1.478677-0.577145 3.89061-1.040702 5.511527-1.106194l0.023536 0.023536 2.028193 1.458211c1.89414 1.360997 2.915399 3.78828 2.567475 6.075369l-41.950438 222.466768 165.598572 154.423045c1.589195 1.63729 2.142803 4.105504 1.408069 6.341429l-0.042979 0.13303c-0.774643 2.394537-2.761903 4.100388-5.185093 4.451382l-0.913812 0.146333-227.480968 39.96727-101.893668 205.067492c-1.036609 2.12336-3.28686 3.495614-5.733585 3.495614-2.518357 0-4.803399-1.440815-5.963829-3.759627l-101.659331-204.701149-228.398874-41.505299c-2.39556-0.346901-4.418636-2.055822-5.15337-4.353145l-0.075725-0.234337c-0.723477-2.200108-0.140193-4.672416 1.483794-6.361895l165.673274-153.09991L292.571429 79.204156c-0.332575-2.38021 0.599657-4.721535 2.408863-6.010901l1.400906-0.998747c2.042519-0.067538 5.180999 0.354064 6.970762 0.895393l206.638267 100.964506L716.010417 72.74607z"  horiz-adv-x="1024" />

    
    <glyph glyph-name="buchongiconsvg02" unicode="&#58972;" d="M912.046 582.741c-22.103 46.546-53.683 88.293-93.863 124.083-39.967 35.599-86.455 63.53-138.174 83.015-53.383 20.112-110.053 30.31-168.432 30.31-58.379 0-115.049-10.198-168.433-30.31-51.719-19.485-98.208-47.415-138.174-83.015-40.18-35.79-71.761-77.537-93.863-124.083-22.997-48.429-34.657-99.895-34.657-152.967 0-89.659 34.325-176.388 96.95-245.719l-35.858-152.643c-0.020-0.087-0.041-0.175-0.060-0.263-3.307-14.78 1.381-30.314 12.236-40.538 7.613-7.172 17.32-10.982 27.303-10.981 3.663 0 7.364 0.513 11.010 1.562 1.098 0.315 2.174 0.704 3.219 1.164l157.273 69.067c12.937 5.682 18.82 20.775 13.138 33.711-5.682 12.937-20.774 18.818-33.711 13.138l-136.191-59.809 34.584 147.217c1.992 8.484-0.469 17.397-6.533 23.655-59.45 61.346-92.191 139.633-92.191 220.439 0 187.040 172.244 339.206 383.96 339.206 211.716 0 383.959-152.168 383.959-339.206s-172.244-339.206-383.959-339.206c-27.796 0-55.528 2.637-82.424 7.839-13.874 2.681-27.294-6.389-29.976-20.26-2.683-13.873 6.389-27.294 20.261-29.976 30.090-5.819 61.090-8.769 92.14-8.769 58.379 0 115.049 10.198 168.432 30.31 51.719 19.485 98.208 47.415 138.174 83.015 40.18 35.79 71.76 77.537 93.863 124.083 22.997 48.429 34.657 99.895 34.657 152.967-0.002 53.071-11.662 104.537-34.659 152.966zM342.513 492.207c-30.163 0-54.614-24.452-54.614-54.614 0-30.163 24.452-54.614 54.614-54.614s54.614 24.452 54.614 54.614c0.001 30.162-24.451 54.614-54.614 54.614zM566.617 437.592c0 30.162-24.452 54.614-54.614 54.614-30.163 0-54.614-24.452-54.614-54.614 0-30.163 24.452-54.614 54.614-54.614 30.162-0.001 54.614 24.451 54.614 54.614zM736.108 437.592c0 30.162-24.452 54.614-54.614 54.614s-54.614-24.452-54.614-54.614c0-30.163 24.452-54.614 54.614-54.614 30.162-0.001 54.614 24.451 54.614 54.614z"  horiz-adv-x="1025" />

    
    <glyph glyph-name="xiaoliang" unicode="&#58910;" d="M403.2 377.6c12.8-6.4 25.6-12.8 38.4-12.8 19.2 0 38.4 6.4 57.6 19.2l364.8 339.2 70.4-76.8 64 224c0 6.4-6.4 19.2-12.8 19.2l-230.4-51.2L825.6 768 460.8 422.4C454.4 416 441.6 416 428.8 422.4l-384 204.8c-12.8 6.4-25.6 0-32-12.8C0 601.6 6.4 588.8 19.2 582.4L403.2 377.6zM224 396.8 64 396.8c-25.6 0-51.2-25.6-51.2-51.2l0-422.4C12.8-102.4 38.4-128 64-128l160 0c25.6 0 51.2 25.6 51.2 51.2L275.2 345.6C275.2 377.6 256 396.8 224 396.8zM588.8 288 428.8 288c-25.6 0-51.2-25.6-51.2-51.2l0-313.6c0-25.6 25.6-51.2 51.2-51.2l160 0c25.6 0 51.2 25.6 51.2 51.2l0 313.6C640 262.4 614.4 288 588.8 288zM947.2 556.8l-160 0c-25.6 0-51.2-25.6-51.2-51.2l0-582.4c0-25.6 25.6-51.2 51.2-51.2l160 0c25.6 0 51.2 25.6 51.2 51.2L998.4 505.6C998.4 531.2 979.2 556.8 947.2 556.8z"  horiz-adv-x="1024" />

    
    <glyph glyph-name="kuaidi" unicode="&#58893;" d="M586.454736 706.142931c0-95.355765-77.29748-172.652222-172.652222-172.652222-95.349625 0-172.647105 77.29748-172.647105 172.652222 0 95.349625 77.29748 172.647105 172.647105 172.647105C509.157255 878.790036 586.454736 801.493579 586.454736 706.142931zM362.345562 336.292442l198.097754 83.496669c12.116969 5.109368 32.305777 6.766101 45.088918 3.703345l4.532223-1.085728c-10.444886 41.219797-45.472658 48.647977-128.769782 48.647977L296.137651 471.054705c-67.74287 0-104.245226 1.928932-126.306684-44.279483-0.320295-0.662079-19.85828-51.833529-40.158628-115.059526-10.151197-31.650861-20.48352-66.292845-28.704762-99.726306-8.175193-33.658587-14.526855-65.268516-15.804964-95.465259l0.025583 0.710175-0.014326-0.323365c-0.035816-1.041726-0.084934-2.357697-0.084934-4.016477-0.034792-16.708544 4.499477-32.406061 10.885931-45.052079 12.287861-23.883967 29.009707-38.912242 46.248324-51.895951 30.439266-22.222117 66.030879-38.280862 104.281041-52.975539 113.832582-43.00342 252.229628-68.352761 254.099209-68.837808 3.994987-0.743944 7.974625-1.102101 11.901051-1.102101 30.447453 0 57.546647 21.665439 63.327304 52.689013 6.53381 35.020608-16.562211 68.701708-51.586912 75.234495 0 0-1.095961 0.207731-3.580548 0.692778-18.519796 3.563152-106.681718 21.456684-186.79022 47.409776-39.870056 12.798491-77.92886 28.073382-101.412714 41.86141-7.746428 4.425799-13.759375 8.765641-17.508769 11.866259 1.685385 14.832823 5.678326 35.932374 11.287067 58.390875 8.515954 34.668591 20.408819 73.482595 31.633465 107.519806-10.587126-63.638389-23.547299-149.565411-24.867364-158.285003 2.185782-1.468444 4.803399-3.115967 7.834432-4.847401 21.389146-12.55392 57.107649-27.259854 98.1893-40.442084 1.139963-0.369414 2.28095-0.735757 3.422959-1.101077-1.307785 3.296069-2.041496 6.77838-2.041496 10.261715L340.410993 303.242721C340.407923 316.390159 350.23064 331.189214 362.345562 336.292442zM884.262422 87.029378c-0.010233 0-0.729617 0.023536-2.573615 0.12689-0.276293 0.014326-0.582261 0.030699-0.901533 0.048095-0.350994-0.165776-0.697895-0.352017-1.052982-0.50142l-198.084451-83.502809c-12.114922-5.109368-32.30373-6.759961-45.088918-3.701299l-13.33061 3.194762c0.088004-0.36532 0.178055-0.741897 0.26606-1.103124 10.864442-4.027733 21.952988-7.538697 33.302477-10.879792 49.586348-13.967106 103.710037-21.635763 146.617265-26.376741 42.794665-4.685719 73.927733-6.125511 74.853825-6.17156 1.014096-0.052189 2.028193-0.074701 3.038196-0.074701 34.250058 0 62.786998 26.944676 64.387449 61.500703C947.358459 55.188182 919.850965 85.367529 884.262422 87.029378zM865.683275 323.264731 687.072341 247.978047c-8.457626-3.564175-15.318894-13.902638-15.318894-23.077601l0-185.710632c0-9.18315 6.861268-13.733792 15.318894-10.174734l178.610934 75.293847c8.460696 3.563152 15.319917 13.892405 15.319917 23.077601L881.003192 313.1033C881.003192 322.279287 874.14397 326.828906 865.683275 323.264731zM623.778806 243.069247l-248.696152 59.60247c-8.955976 2.149966-16.216333-3.581572-16.216333-12.787234l0-186.882318c0-9.203616 7.260357-18.407232 16.216333-20.558222l248.696152-59.60247c8.956999-2.143826 16.21531 3.581572 16.21531 12.787234L639.994116 222.511026C639.993093 231.720781 632.735805 240.925421 623.778806 243.069247zM385.647267 198.966797l-4.846378 1.417279 0.137123 6.850012-6.440689 1.883907-3.514033-5.862521-4.689812 1.372254 13.849426 22.052249 5.816472-1.700735L385.647267 198.966797zM401.324318 194.381361l-13.226233 3.868097 7.033184 24.045649 4.627391-1.353834-5.89015-20.136619 8.598842-2.515287L401.324318 194.381361zM416.971693 189.805136l-13.226233 3.868097 7.033184 24.045649 4.627391-1.353834-5.889127-20.136619 8.598842-2.515287L416.971693 189.805136zM420.119383 197.505515l0.933255 3.189645 8.567119-2.506077-0.933255-3.189645L420.119383 197.505515zM441.916828 182.508963l3.02694 10.349719-8.192589 2.39556-3.02694-10.349719-4.627391 1.353834 7.033184 24.045649 4.627391-1.353834-2.807952-9.599635 8.192589-2.39556 2.807952 9.599635 4.627391-1.353834-7.033184-24.045649L441.916828 182.508963zM468.163609 174.83212l-4.846378 1.417279 0.137123 6.850012-6.440689 1.883907-3.514033-5.862521-4.689812 1.372254 13.849426 22.051225 5.816472-1.700735L468.163609 174.83212zM474.554156 172.962539l0.060375 26.085098 5.065366-1.481747-0.388856-11.42726c-0.051165-1.529843-0.121773-3.064802-0.203638-4.601808-0.086981-1.535983-0.211824-3.066849-0.381693-4.594645l0.094144-0.027629c0.692778 1.364067 1.417279 2.719948 2.185782 4.067642 0.769526 1.353834 1.546216 2.675946 2.340301 3.977591l5.892197 9.8176 4.971222-1.454118-14.349823-21.905916L474.554156 172.962539zM507.794212 185.134767l-8.317433 2.432399-1.700735-5.815449 7.848759-2.295276-1.106194-3.783163-7.848759 2.295276-1.957585-6.691399 8.81783-2.578732-1.133823-3.877307-13.44522 3.932566 7.033184 24.045649 12.944823-3.786233L507.794212 185.134767zM518.066159 160.236704c-3.053546 0.893346-5.469572 3.76065-5.412266 6.834662l4.845355 16.567327 13.653975-3.992941-1.035586-3.541663-9.254781 2.706645-3.700275-12.650111c-0.014326 0.004093 0.836041-1.678222 2.041496-2.030239 0.927115-0.271176 2.178619 0.154519 2.828418 0.605797l3.13234 10.707876 4.383844-1.282203-3.241834-11.082406C524.69923 160.456714 521.118682 159.343357 518.066159 160.236704zM570.716286 167.604508l-1.044796-3.570315-1.035586-3.541663-4.399193 1.286296-3.656273 1.069355-2.739391-9.364275c2.01796 0.166799 4.100388 0.552585 6.243191 1.146103l0.796132-3.583618c-2.662643-0.73678-5.454222-1.212618-8.144494-1.342578L551.617299 132.201184l5.984295-1.750877-1.035586-3.541663-10.383488 3.037173 5.826705 19.920702c-1.01205 0.130983-1.984191 0.327458-2.902096 0.595564l0.099261 3.815909c1.25662-0.367367 2.548032-0.618077 3.871167-0.757247l3.104711 10.613732-11.867282 3.471055-2.4017-8.212032 6.28924-1.839905-0.943488-3.224438-6.28924 1.839905-0.938372-3.208065c-1.038656-3.551896-4.761444-5.590322-8.31334-4.551666s-5.590322 4.761444-4.551666 8.314363c0.950651 3.25002 4.148483 5.231141 7.405667 4.749164l0.907673-0.198521 2.407839-0.704035 2.4017 8.212032-8.881274 2.597151 1.035586 3.541663 8.881274-2.598174 0.868787 2.970658-7.763824 2.270716 1.035586 3.541663c4.825912-1.411139 9.651824-2.823302 14.477736-4.234441l-1.035586-3.541663-2.690272 0.786922-0.868787-2.970658 11.867282-3.471055 1.904373 6.512321 4.399193-1.286296-1.904373-6.512321 3.656273-1.069355 1.451048 4.960988c0.096191 0.329505 0.010233 1.332345-0.295735 1.77032l3.815909-1.116427C570.685587 170.151517 570.95881 168.717865 570.716286 167.604508zM577.472154 142.860964c-3.053546 0.893346-5.469572 3.76065-5.412266 6.834662l4.845355 16.567327 13.653975-3.993964-1.035586-3.541663-9.254781 2.706645-3.700275-12.650111c-0.01535 0.004093 0.836041-1.678222 2.041496-2.030239 0.927115-0.271176 2.178619 0.154519 2.828418 0.605797l3.13234 10.707876 4.383844-1.282203-3.241834-11.083429C584.106248 143.081998 580.5257 141.967618 577.472154 142.860964zM591.360466 130.96503l-4.399193 1.286296 2.594081 8.868995 4.399193-1.286296L591.360466 130.96503zM594.866313 142.955108l-4.399193 1.286296 2.13871 7.311523 4.399193-1.286296L594.866313 142.955108zM593.518618 154.672988l2.13871 7.311523 4.399193-1.286296-2.13871-7.311523L593.518618 154.672988zM628.39494 138.865977l-1.035586-3.541663-2.237971 0.653893-3.194762-10.924817c-0.376577-1.264806-2.070148-2.430352-3.53757-1.9934-5.799076 1.695618-10.473539 3.063779-16.272615 4.759397l1.035586 3.541663 12.910031-3.776c0.74906-0.218988 1.958608 0.441045 2.178619 1.193175l2.482541 8.486278-14.595416 4.269233-1.224898-4.188392 12.972453-3.794419-1.035586-3.541663-17.371646 5.080715 2.260483 7.730055-2.236947 0.653893 1.035586 3.541663 2.236947-0.653893 2.260483 7.730055c7.797593-2.28095 15.595186-4.561899 23.393803-6.841825l-2.260483-7.730055L628.39494 138.865977zM615.648638 137.840624l-0.734734-2.51324-4.936429 1.443885 0.734734 2.51324L615.648638 137.840624zM631.051443 147.947819l-27.867698 8.150634 1.697665 4.848425 4.14132-1.211595-0.404206-1.381463 23.469528-6.864338L631.051443 147.947819zM530.35095 155.804764c-0.488117-1.669012 0.384763-3.582595 2.074242-4.076852 1.90335-0.556679 2.838651 0.36839 3.459798 2.051729l1.044796 3.571339-2.446725 0.715291C532.593014 158.512433 530.996656 158.012036 530.35095 155.804764zM463.417515 196.421834c-0.285502-0.533143-0.572028-1.066285-0.861624-1.592264-0.289596-0.525979-0.561795-1.01205-0.815575-1.453095l-3.048429-5.082762 5.127787-1.500167 0.161682 5.892197c0.022513 0.542352 0.054235 1.115404 0.092098 1.727341 0.035816 0.605797 0.076748 1.210571 0.122797 1.814322 0.045025 0.597611 0.085958 1.162476 0.125867 1.688455l-0.094144 0.027629C463.978287 197.468676 463.705064 196.960093 463.417515 196.421834zM380.901173 220.556511c-0.285502-0.533143-0.572028-1.066285-0.861624-1.592264-0.289596-0.525979-0.561795-1.01205-0.815575-1.453095l-3.048429-5.082762 5.127787-1.500167 0.161682 5.892197c0.022513 0.542352 0.054235 1.115404 0.092098 1.727341 0.035816 0.605797 0.076748 1.210571 0.122797 1.814322 0.045025 0.597611 0.085958 1.162476 0.125867 1.688455l-0.094144 0.027629C381.461945 221.603353 381.188722 221.09477 380.901173 220.556511zM607.163383 145.075399l14.595416-4.269233 1.224898 4.188392-14.595416 4.269233L607.163383 145.075399zM612.972693 147.013541l4.936429-1.443885-0.734734-2.51324-4.936429 1.443885L612.972693 147.013541zM846.586334 348.087069l-245.928109 58.930157c-9.115612 2.188852-23.505343 1.006933-32.140001-2.63399l-176.101787-74.232678c-8.639774-3.640923-8.251941-8.364505 0.862647-10.547217l245.940388-58.931181c9.115612-2.186805 23.50432-1.00591 32.141024 2.63399l176.090531 74.232678C856.088756 341.181799 855.701946 345.906403 846.586334 348.087069zM530.35095 155.804764c-0.488117-1.669012 0.384763-3.582595 2.074242-4.076852 1.90335-0.556679 2.838651 0.36839 3.459798 2.051729l1.044796 3.571339-2.446725 0.715291C532.593014 158.512433 530.996656 158.012036 530.35095 155.804764zM380.901173 220.556511c-0.285502-0.533143-0.572028-1.066285-0.861624-1.592264-0.289596-0.525979-0.561795-1.01205-0.815575-1.453095l-3.048429-5.082762 5.127787-1.500167 0.161682 5.892197c0.022513 0.542352 0.054235 1.115404 0.092098 1.727341 0.035816 0.605797 0.076748 1.210571 0.122797 1.814322 0.045025 0.597611 0.085958 1.162476 0.125867 1.688455l-0.094144 0.027629C381.461945 221.603353 381.188722 221.09477 380.901173 220.556511zM463.417515 196.421834c-0.285502-0.533143-0.572028-1.066285-0.861624-1.592264-0.289596-0.525979-0.561795-1.01205-0.815575-1.453095l-3.048429-5.082762 5.127787-1.500167 0.161682 5.892197c0.022513 0.542352 0.054235 1.115404 0.092098 1.727341 0.035816 0.605797 0.076748 1.210571 0.122797 1.814322 0.045025 0.597611 0.085958 1.162476 0.125867 1.688455l-0.094144 0.027629C463.978287 197.468676 463.705064 196.960093 463.417515 196.421834zM607.163383 145.075399l14.595416-4.269233 1.224898 4.188392-14.595416 4.269233L607.163383 145.075399zM612.972693 147.013541l4.936429-1.443885-0.734734-2.51324-4.936429 1.443885L612.972693 147.013541zM530.35095 155.804764c-0.488117-1.669012 0.384763-3.582595 2.074242-4.076852 1.90335-0.556679 2.838651 0.36839 3.459798 2.051729l1.044796 3.571339-2.446725 0.715291C532.593014 158.512433 530.996656 158.012036 530.35095 155.804764z"  horiz-adv-x="1024" />

    
    <glyph glyph-name="balance" unicode="&#58940;" d="M511.744173 866.779492c-266.736017 0-482.96778-216.231763-482.96778-482.96778s216.232786-482.968803 482.96778-482.968803S994.712977 117.075695 994.712977 383.811712 778.48019 866.779492 511.744173 866.779492zM511.744173 81.087039c-167.189813 0-302.723649 135.533836-302.723649 302.723649s135.533836 302.723649 302.723649 302.723649c167.189813 0 302.723649-135.533836 302.723649-302.723649S678.933987 81.087039 511.744173 81.087039zM511.744173 653.468245c-148.926868 0-269.656533-120.729665-269.656533-269.656533S362.817306 114.155179 511.744173 114.155179 781.400706 234.883821 781.400706 383.811712 660.671041 653.468245 511.744173 653.468245zM384.835785 544.378687c7.071046 7.071046 18.642592 7.071046 25.713638 0l81.19116-81.19116c7.071046-7.071046 7.071046-18.642592 0-25.713638-7.071046-7.071046-18.642592-7.071046-25.713638 0l-81.19116 81.19116C377.76474 525.737118 377.76474 537.307641 384.835785 544.378687zM643.795699 393.847276c0-10.754948-8.800433-19.555381-19.555381-19.555381l-92.940762 0 0-75.324546 92.940762 0c10.754948 0 19.555381-8.79941 19.555381-19.555381l0 0c0-10.754948-8.800433-19.555381-19.555381-19.555381l-92.940762 0 0-55.417147c0-10.754948-8.800433-19.555381-19.555381-19.555381-10.755971 0-19.555381 8.79941-19.555381 19.555381l0 55.417147-92.940762 0c-10.755971 0-19.555381 8.79941-19.555381 19.555381l0 0c0 10.754948 8.79941 19.555381 19.555381 19.555381l92.940762 0 0 75.324546-92.940762 0c-10.755971 0-19.555381 8.79941-19.555381 19.555381l0 0c0 10.754948 8.79941 19.555381 19.555381 19.555381l224.992287 0C634.996289 413.402657 643.795699 404.603247 643.795699 393.847276L643.795699 393.847276zM638.755915 518.665049l-81.19116-81.19116c-7.071046-7.071046-18.642592-7.071046-25.713638 0-7.071046 7.071046-7.071046 18.642592 0 25.713638l81.19116 81.19116c7.071046 7.071046 18.642592 7.071046 25.713638 0C645.826961 537.307641 645.826961 525.737118 638.755915 518.665049z"  horiz-adv-x="1024" />

    
    <glyph glyph-name="yingyongguanli" unicode="&#58903;" d="M849.92 111.616c-4.096-12.288-8.192-24.576-14.336-34.816 0-2.048 32.768-40.96 14.336-61.44L839.68 5.12c-14.336-14.336-53.248 8.192-61.44 14.336-12.288-6.144-24.576-12.288-36.864-14.336l2.048 0c0 0-6.144-53.248-34.816-53.248l-10.24 0c-22.528 0-34.816 45.056-36.864 55.296-12.288 4.096-24.576 8.192-36.864 16.384l2.048-2.048c0 0-43.008-32.768-63.488-12.288l-8.192 8.192c-16.384 16.384 10.24 55.296 14.336 63.488-6.144 10.24-10.24 22.528-14.336 32.768-8.192 2.048-55.296 14.336-55.296 36.864l0 10.24c0 24.576 43.008 32.768 53.248 34.816 4.096 12.288 8.192 22.528 14.336 34.816-4.096 6.144-30.72 47.104-14.336 63.488l10.24 8.192c18.432 18.432 53.248-8.192 63.488-14.336 10.24 6.144 22.528 10.24 34.816 14.336 2.048 10.24 14.336 53.248 36.864 53.248l10.24 0c24.576 0 32.768-40.96 34.816-53.248 12.288-4.096 24.576-8.192 34.816-14.336 10.24 6.144 47.104 28.672 61.44 14.336l8.192-10.24c18.432-18.432-6.144-53.248-14.336-61.44 6.144-10.24 10.24-22.528 14.336-34.816 4.096 0 53.248-8.192 53.248-34.816l0-10.24C903.168 125.952 862.208 113.664 849.92 111.616zM702.464 263.168c-61.44 0-112.64-51.2-112.64-112.64s51.2-112.64 112.64-112.64c61.44 0 112.64 51.2 112.64 112.64S765.952 263.168 702.464 263.168zM702.464 74.752c-40.96 0-75.776 32.768-75.776 75.776 0 40.96 32.768 75.776 75.776 75.776 40.96 0 75.776-32.768 75.776-75.776C778.24 109.568 743.424 74.752 702.464 74.752zM702.464 189.44c-20.48 0-36.864-16.384-36.864-36.864 0-20.48 16.384-36.864 36.864-36.864 20.48 0 36.864 16.384 36.864 36.864C741.376 171.008 722.944 189.44 702.464 189.44zM659.456 338.944c-16.384-4.096-30.72-10.24-45.056-18.432-10.24 8.192-40.96 22.528-63.488 0l-12.288-10.24c-20.48-20.48-4.096-55.296 2.048-65.536-8.192-12.288-12.288-26.624-16.384-40.96l-6.144-4.096c-14.336-2.048-38.912-12.288-45.056-32.768l-40.96-28.672L432.128 449.536l274.432 176.128 0-235.52C677.888 386.048 663.552 351.232 659.456 338.944zM135.168 664.576 409.6 820.224l274.432-155.648L409.6 488.448 135.168 664.576zM389.12 136.192 116.736 330.752 116.736 625.664 389.12 449.536 389.12 136.192z"  horiz-adv-x="1024" />

    
    <glyph glyph-name="jian" unicode="&#58915;" d="M510.760265 833.092251c-229.477438 0-415.462317-185.984878-415.462317-415.462317 0-229.479485 185.984878-415.462317 415.462317-415.462317 229.477438 0 415.462317 185.982832 415.462317 415.462317C926.222581 647.108397 740.237703 833.092251 510.760265 833.092251zM726.801692 401.011442 295.822984 401.011442l0 33.238009 430.978708 0L726.801692 401.011442z"  horiz-adv-x="1024" />

    
    <glyph glyph-name="fangdichan" unicode="&#58904;" d="M610.1248 461.5424l0 96.6144L566.784 558.1568 566.784 652.416l-31.1296 0L535.6544 740.096l-26.1376 0 0-87.68-31.1296 0 0-94.2592-43.3408 0 0-96.6144-35.3024 0L399.744 24.832l245.6576 0L645.4016 461.5424 610.1248 461.5424zM520.0128 80.3328l-79.5904 0 0 80.896 79.5904 0L520.0128 80.3328zM520.0128 328.32l-79.5904 0 0 80.8704 79.5904 0L520.0128 328.32zM613.4784 205.3632l-79.5904 0 0 80.8448 79.5904 0L613.4784 205.3632zM371.9936 411.136l0 85.4784L333.056 496.6144l0 83.4048-28.0064 0L305.0496 657.5616 281.6 657.5616l0-77.5424L253.6192 580.0192l0-83.4048L214.656 496.6144l0-85.4784L182.9376 411.136l0-386.304 220.7488 0L403.6864 411.136 371.9936 411.136zM291.0208 73.9328 219.4944 73.9328l0 71.552 71.5264 0L291.0208 73.9328zM291.0208 293.3248 219.4944 293.3248l0 71.5264 71.5264 0L291.0208 293.3248zM374.9888 184.5248l-71.552 0 0 71.552 71.552 0L374.9888 184.5248zM834.4576 411.136l0 85.4784-38.9376 0 0 83.4048-28.0064 0L767.5136 657.5616l-23.4752 0 0-77.5424-27.9552 0 0-83.4048L677.12 496.6144l0-85.4784-31.7184 0 0-386.304 220.7744 0L866.176 411.136 834.4576 411.136zM753.5104 73.9328l-71.552 0 0 71.552 71.552 0L753.5104 73.9328zM753.5104 293.3248l-71.552 0 0 71.5264 71.552 0L753.5104 293.3248zM837.4784 184.5248 765.952 184.5248l0 71.552 71.5264 0L837.4784 184.5248z"  horiz-adv-x="1024" />

    
    <glyph glyph-name="iconset0463" unicode="&#59222;" d="M469.333333 128c0-23.466667 19.2-42.666667 42.666667-42.666667s42.666667 19.2 42.666667 42.666667c0 42.666667-42.666667 85.333333-42.666667 85.333333S469.333333 170.666667 469.333333 128zM256 0c0-23.466667 19.2-42.666667 42.666667-42.666667s42.666667 19.2 42.666667 42.666667c0 42.666667-42.666667 85.333333-42.666667 85.333333S256 42.666667 256 0zM682.666667 42.666667c0-23.466667 19.2-42.666667 42.666667-42.666667s42.666667 19.2 42.666667 42.666667c0 42.666667-42.666667 85.333333-42.666667 85.333333S682.666667 85.333333 682.666667 42.666667zM853.333333 590.933333c0 2.133333 0 4.266667 0 6.4 0 70.4-57.6 128-128 128-32 0-61.866667-12.8-83.2-32C595.2 763.733333 516.266667 810.666667 426.666667 810.666667 298.666667 810.666667 192 716.8 172.8 593.066667 98.133333 573.866667 42.666667 507.733333 42.666667 426.666667c0-93.866667 76.8-170.666667 170.666667-170.666667l597.333333 0c93.866667 0 170.666667 76.8 170.666667 170.666667C981.333333 505.6 925.866667 573.866667 853.333333 590.933333zM810.666667 298.666667 213.333333 298.666667c-70.4 0-128 57.6-128 128 0 59.733333 40.533333 110.933333 98.133333 123.733333 17.066667 4.266667 29.866667 17.066667 32 36.266667C230.4 689.066667 322.133333 768 426.666667 768c72.533333 0 117.333333-14.933333 157.866667-76.8 6.4-10.666667 38.4-38.4 51.2-40.533333 2.133333 0 6.4 0 6.4 0 10.666667 0 19.2 4.266667 27.733333 10.666667 14.933333 12.8 36.266667 21.333333 55.466667 21.333333 46.933333 0 85.333333-38.4 85.333333-85.333333l0-2.133333c0-19.2 12.8-38.4 32-42.666667 57.6-14.933333 96-66.133333 96-123.733333C938.666667 356.266667 881.066667 298.666667 810.666667 298.666667z"  horiz-adv-x="1024" />

    
    <glyph glyph-name="pao" unicode="&#59151;" d="M320.512 586.24l100.864 0 0-105.472-100.864 0 0 105.472ZM540.672 445.952l96.768 0 0-101.888-96.768 0 0 101.888ZM512 844.8c-254.464 0-460.8-206.336-460.8-460.8s206.336-460.8 460.8-460.8 460.8 206.336 460.8 460.8S766.464 844.8 512 844.8zM476.16 194.56c-86.528-17.408-156.672-36.864-210.432-57.344-1.024 12.288-5.632 26.112-15.36 41.472 13.824 1.024 27.136 3.072 38.4 5.12l0 146.432c0 21.504-1.536 40.448-4.096 56.832 9.216-2.56 24.064-3.584 44.544-3.584 4.096 0 5.632-1.024 5.632-3.584 0-2.56-1.536-4.608-4.608-5.632-3.072-1.536-5.632-4.608-7.68-9.728s-3.584-11.264-3.584-17.408l0-155.648 41.472 10.752L360.448 454.144c-28.16 0-53.248-1.024-74.752-3.584 2.56 20.48 3.584 47.616 3.584 81.92 0 34.304-1.536 61.952-4.096 82.432 16.896-2.56 45.568-3.584 87.04-3.584 40.96 0 69.12 1.024 83.456 3.584-2.048-19.456-3.072-45.056-3.072-77.312 0-31.744 1.024-61.44 3.072-87.552-16.896 2.56-37.888 3.584-62.464 4.096l0-88.576c29.184 0 53.76 1.024 73.728 3.584l0-35.328c-22.016 2.048-46.592 3.072-73.728 3.072L393.216 209.92l85.504 20.992c-2.56-7.68-3.584-14.848-3.584-20.992S475.136 198.656 476.16 194.56zM777.216 163.328c-12.288-11.776-27.136-19.456-44.544-22.016s-48.128-4.608-92.16-4.608-74.24 1.536-90.624 4.096c-16.384 2.56-27.648 8.704-33.28 17.408-5.632 8.704-8.192 23.552-8.192 44.544L508.416 418.816c0 14.336-0.512 28.672-1.536 43.52-5.632-11.264-15.872-29.696-30.208-55.808-9.728 8.192-22.016 13.824-36.352 17.408 23.552 25.088 45.056 57.856 64.512 99.328 19.456 40.96 33.28 82.432 40.96 123.904 15.36-7.168 31.232-10.752 46.592-11.776 5.632-0.512 8.704-2.048 8.704-5.12 0-3.072-3.072-6.144-8.704-8.704-5.632-2.56-10.752-7.68-15.36-14.848-4.608-7.168-10.752-19.968-18.944-37.888l132.608 0c33.792 0 58.368 1.536 72.704 4.608-2.56-30.208-4.096-49.152-4.608-56.832l-8.192-197.632c-1.024-33.28-8.192-54.784-21.504-64.512-13.312-9.728-33.28-16.896-60.928-20.992-0.512 12.8-7.168 26.624-20.48 41.472 29.696-1.024 48.128 1.536 56.32 7.68 7.68 6.656 12.288 20.992 12.8 44.032l7.168 211.968-179.2 0c-8.192-18.944-18.432-39.424-30.208-61.44 13.824-1.536 40.448-2.56 80.896-2.56 40.448 0 67.072 1.024 79.872 3.072-2.56-12.288-4.096-28.16-4.096-47.616l0-68.096c0-16.896 1.536-32.256 4.608-46.592l-134.656 0 0-102.4c0-20.48 4.096-32.768 11.776-37.376 8.192-4.608 35.328-6.656 81.92-6.656 46.592 0 76.8 2.048 89.6 5.632 13.312 4.096 23.04 11.264 29.696 22.528 6.656 11.264 10.24 27.136 11.776 47.616 11.264-12.288 24.576-20.48 39.936-24.576C798.72 194.56 789.504 175.104 777.216 163.328z"  horiz-adv-x="1024" />

    
    <glyph glyph-name="iconfontshoucang1" unicode="&#58968;" d="M483.411745 67.025946l-172.38291-90.629035C265.970332-47.270182 213.288294-9.038724 221.878993 41.196955l32.940497 191.953775c3.413523 19.912217-3.185955 40.279571-17.693427 54.388799l-139.442413 135.971998C61.215845 459.012167 81.355631 520.967609 131.705095 528.306684l192.750264 27.990888C344.48136 559.199067 361.776543 571.77221 370.708595 589.920773l86.191455 174.658592c22.529252 45.684316 87.670648 45.684316 110.1999 0l86.191455-174.658592c8.932052-18.148564 26.227235-30.721707 46.253236-33.623201l192.750264-27.990888c50.406356-7.339074 70.546141-69.237624 34.078338-104.795155l-139.442413-135.971998c-14.507473-14.109228-21.10695-34.476582-17.693427-54.388799l32.940497-191.953775c8.590699-50.178788-44.091338-88.467137-89.149842-64.800044l-172.38291 90.629035C522.724151 76.470026 501.332741 76.470026 483.411745 67.025946z"  horiz-adv-x="1025" />

    
    <glyph glyph-name="dongtaixuanzhong" unicode="&#59164;" d="M845.466833 176.229956l-7.968485 14.791891L845.466833 176.229956 845.466833 176.229956 845.466833 176.229956zM845.466833 176.229956M1024.939391 407.935132c0 101.982696-68.124564 196.823738-182.228321 253.995855-0.038886 0.010233-0.055259 0.050142-0.072655 0.050142-0.01535 0.017396-0.056282 0.017396-0.072655 0.017396-0.452301 0.229221-0.876973 0.474814-1.340531 0.709151l-0.140193-0.301875c-8.080026 3.218298-17.512862-0.122797-21.754466-8.271384-4.330632-8.358365-1.445932-18.322297 6.252401-22.933315l-0.082888-0.128937c0.223081-0.105401 0.441045-0.245593 0.671289-0.352017 0.065492-0.032746 0.105401-0.105401 0.172939-0.13917 0.071631-0.039909 0.13917-0.017396 0.194428-0.056282 98.640578-49.321312 163.055656-130.60457 163.055656-222.585471 0-88.514963-59.681264-167.174464-152.096047-216.902028l7.968485-14.791891 0 0-7.968485 14.791891c-2.705622-1.465374-4.912893-4.431939-6.667863-8.606005-14.662955-34.652218 1.280156-151.213957 1.420349-152.180981-0.654916 0.407276-174.494173 105.408725-227.27426 105.408725-98.819656 0-188.926884 26.348088-257.045307 69.710688l-0.017396-0.032746c-8.073886 4.699022-18.574031 1.855254-23.559579-6.466272-4.805446-8.023744-2.559289-18.060331 4.722558-23.167652l-0.105401-0.161682c0.229221-0.157589 0.49221-0.280386 0.74292-0.424672 0.090051-0.050142 0.140193-0.161682 0.230244-0.212848 0.105401-0.050142 0.229221-0.050142 0.334621-0.105401 76.054163-48.012504 173.533288-74.499761 274.715759-74.499761 26.543539 0 129.157615-52.080146 209.000058-100.305497l63.36926-38.256302-10.092869 73.315796c-7.241938 52.930513-9.331529 109.989043-5.068436 129.398092C965.665403 222.901928 1024.939391 311.149808 1024.939391 407.935132L1024.939391 407.935132 1024.939391 407.935132zM1024.939391 407.935132M388.76937 807.785889C174.063357 807.785889-4.0e-06 685.148781-4.0e-06 533.879566c0-89.063455 60.311621-168.180374 153.723104-218.20879 25.783223-13.797237 5.320169-161.742754 5.320169-161.742754s176.287005 106.045221 229.726102 106.045221c214.706013 0 388.768351 122.637108 388.768351 273.906324S603.47436 807.785889 388.76937 807.785889L388.76937 807.785889 388.76937 807.785889zM228.614787 495.762433c-24.38641 0-44.162826 19.771299-44.162826 44.196595 0 24.38641 19.776416 44.162826 44.162826 44.162826 24.402783 0 44.195571-19.776416 44.195571-44.162826C272.810359 515.555222 253.016547 495.762433 228.614787 495.762433L228.614787 495.762433 228.614787 495.762433zM382.12402 495.762433c-24.38641 0-44.162826 19.771299-44.162826 44.196595 0 24.38641 19.776416 44.162826 44.162826 44.162826 24.403806 0 44.196595-19.776416 44.196595-44.162826C426.320615 515.555222 406.545222 495.762433 382.12402 495.762433L382.12402 495.762433 382.12402 495.762433zM535.652695 495.762433c-24.38641 0-44.158732 19.771299-44.158732 44.196595 0 24.38641 19.771299 44.162826 44.158732 44.162826 24.407899 0 44.195571-19.776416 44.195571-44.162826C579.847244 515.555222 560.060595 495.762433 535.652695 495.762433L535.652695 495.762433 535.652695 495.762433zM535.652695 495.762433"  horiz-adv-x="1026" />

    
    <glyph glyph-name="huidaodingbu-copy-copy-copy-copy" unicode="&#58886;" d="M737.434 525.287h-449.406c-16.383 0-29.663-13.28-29.663-29.663s13.28-29.663 29.663-29.663h449.406c16.382 0 29.664 13.28 29.664 29.663s-13.282 29.663-29.664 29.663zM742.157 254.105c-0.513 0.447-52.053 45.174-103.226 89.328-30.079 25.954-54.157 46.64-71.566 61.486-10.395 8.864-18.524 15.742-24.163 20.442-11.985 9.989-17.455 14.548-28.633 14.548-11.454 0-17.219-4.967-28.704-14.865-5.458-4.704-13.322-11.585-23.371-20.453-16.826-14.848-40.091-35.536-69.148-61.492-49.435-44.155-99.21-88.884-99.707-89.331-12.185-10.95-13.186-29.707-2.236-41.891 10.951-12.186 29.707-13.186 41.891-2.236 45.263 40.676 108.99 97.744 152.067 135.965v-309.098c0-16.382 13.281-29.664 29.664-29.664s29.664 13.281 29.664 29.664v309.741c44.603-38.226 111.29-95.903 158.579-136.947 5.614-4.875 12.538-7.261 19.429-7.26 8.297 0 16.549 3.462 22.415 10.221 10.738 12.372 9.413 31.108-2.958 41.846zM906.615 466.355c-21.695 51.293-52.748 97.351-92.293 136.897s-85.605 70.598-136.897 92.292c-53.119 22.467-109.529 33.86-167.662 33.86-58.132 0-114.542-11.393-167.662-33.86-51.292-21.694-97.351-52.747-136.897-92.292s-70.598-85.605-92.293-136.897c-22.467-53.119-33.86-109.531-33.86-167.662s11.393-114.541 33.86-167.661c21.695-51.293 52.748-97.351 92.293-136.897s85.605-70.598 136.897-92.293c53.119-22.467 109.531-33.859 167.662-33.859 58.133 0 114.542 11.391 167.662 33.859 51.293 21.695 97.351 52.748 136.897 92.293s70.598 85.605 92.293 136.897c22.467 53.119 33.859 109.529 33.859 167.661s-11.391 114.542-33.859 167.662zM509.763-71.881c-204.335 0-370.575 166.24-370.575 370.575s166.24 370.575 370.575 370.575c204.336 0 370.575-166.24 370.575-370.575 0-204.336-166.24-370.575-370.575-370.575z"  horiz-adv-x="1024" />

    
    <glyph glyph-name="jian1" unicode="&#58906;" d="M512 831.419146c-248.312412 0-449.610044-200.316282-449.610044-447.418123s201.297632-447.419146 449.610044-447.419146 449.610044 200.316282 449.610044 447.418123S760.313435 831.419146 512 831.419146zM512-7.595746c-216.272695 0-391.595746 175.323051-391.595746 391.595746s175.323051 391.595746 391.595746 391.595746 391.595746-175.323051 391.595746-391.595746S728.272695-7.595746 512-7.595746zM700.546214 354.993363 323.453786 354.993363c-15.954367 0-29.006637 13.053294-29.006637 29.006637l0 0c0 15.954367 13.053294 29.006637 29.006637 29.006637l377.092427 0c15.954367 0 29.006637-13.053294 29.006637-29.006637l0 0C729.552851 368.046656 716.499557 354.993363 700.546214 354.993363z"  horiz-adv-x="1024" />

    
    <glyph glyph-name="sousuo" unicode="&#58991;" d="M775.241691 105.580234c-19.251046-19.274075-50.446969-19.274075-69.688804 0L605.987694 205.29281c-0.365385 0.359244-0.602579 0.788342-0.950309 1.162939-35.853049-19.921943-77.076342-31.337163-120.989361-31.337163C346.01221 175.118585 234.122939 287.172894 234.122939 425.403682 234.122939 563.6314 346.01221 675.694153 484.048024 675.694153c138.038885 0 249.925085-112.062753 249.925085-250.290471 0-58.51922-20.201355-112.222417-53.789937-154.833559l95.058519-95.190549C794.4889 156.113943 794.4889 124.86352 775.241691 105.580234L775.241691 105.580234zM484.057235 600.986675c-96.830945 0-175.322771-78.605433-175.322771-175.582993 0-96.98063 78.491826-175.577619 175.322771-175.577619 96.830177 0 175.331214 78.59699 175.331214 175.577619C659.38845 522.381241 580.887412 600.986675 484.057235 600.986675L484.057235 600.986675zM484.057235 600.986675"  horiz-adv-x="1024" />

    
    <glyph glyph-name="fenxiang1" unicode="&#58916;" d="M696.066691 523.224902c59.978023 0 108.789729 48.799426 108.789729 108.769262 0 60.001559-48.810682 108.787682-108.789729 108.787682-59.98007 0-108.791775-48.786123-108.791775-108.787682 0-14.093996 2.905166-27.496238 7.806803-39.86494L378.997312 466.786495c-19.721157 19.875676-46.985104 32.233122-77.138868 32.233122-59.968813 0-108.768239-48.812729-108.768239-108.789729 0-59.992349 48.799426-108.800985 108.768239-108.800985 30.593785 0 58.208726 12.795421 77.974909 33.221636l214.259852-135.062092c-4.133134-11.490705-6.818289-23.702841-6.818289-36.606733 0-59.992349 48.811706-108.780519 108.791775-108.780519 59.978023 0 108.789729 48.78817 108.789729 108.780519 0 59.977-48.810682 108.788705-108.789729 108.788705-31.200606 0-59.122539-13.357216-78.975702-34.45472L403.358139 352.025775c4.507664 11.951193 7.277754 24.74559 7.277754 38.246069 0 13.929244-2.858094 27.121707-7.652284 39.367613L619.288027 555.092703C638.923226 535.392012 666.075633 523.224902 696.066691 523.224902zM696.066691 207.576895c35.594683 0 64.638159-28.991288 64.638159-64.629973 0-35.629475-29.043477-64.608483-64.638159-64.608483-35.620265 0-64.643276 28.977985-64.643276 64.608483 0 11.881608 3.475148 22.867824 9.060353 32.451086 0.177032 0.220011 0.396019 0.399089 0.572028 0.661056 0.264013 0.385786 0.264013 0.832971 0.485047 1.209548C652.97322 195.405691 673.067884 207.576895 696.066691 207.576895zM301.857421 325.566146c-35.640732 0-64.60746 28.988218-64.60746 64.662719 0 35.585473 28.967752 64.606437 64.60746 64.606437 21.052478 0 39.652092-10.299577 51.458999-25.966395 0.286526-0.704035 0.286526-1.427512 0.725524-2.122337 1.011027-1.790786 2.308579-3.373841 3.737114-4.759397 5.365194-9.420557 8.706289-20.173458 8.706289-31.758308 0-12.664438-3.802606-24.430412-10.134825-34.43323-0.066515-0.053212-0.109494-0.084934-0.153496-0.14224-0.088004-0.128937-0.066515-0.261966-0.177032-0.406253C344.499613 337.437521 324.569702 325.566146 301.857421 325.566146zM696.066691 696.609811c35.594683 0 64.638159-29.000498 64.638159-64.639183 0-35.619242-29.043477-64.596204-64.638159-64.596204-35.620265 0-64.643276 28.976962-64.643276 64.596204C631.423415 667.632849 660.402423 696.609811 696.066691 696.609811z"  horiz-adv-x="1024" />

    
    <glyph glyph-name="xiaoxue1" unicode="&#58966;" d="M473.473267-45.370297 364.990099-45.370297c-9.631683 0-17.235644 7.60396-17.235644 17.235644 0 9.631683 7.60396 17.235644 17.235644 17.235644l108.483168 0c9.631683 0 17.235644-7.60396 17.235644-17.235644S483.10495-45.370297 473.473267-45.370297L473.473267-45.370297zM473.473267-45.370297M446.605941-92.514851c-6.083168 0-11.659406 3.041584-15.207921 8.617822l-54.241584 94.289109c-4.562376 8.110891-2.027723 18.756436 6.590099 23.825743 8.110891 4.562376 18.756436 2.027723 23.825743-6.590099L461.306931-66.154455c4.562376-8.110891 2.027723-18.756436-6.590099-23.825743C452.182178-91.50099 449.140594-92.514851 446.605941-92.514851L446.605941-92.514851zM446.605941-92.514851M391.857426-92.514851c-3.041584 0-6.083168 0.506931-8.617822 2.534653-8.110891 4.562376-11.152475 15.207921-6.590099 23.825743l54.241584 94.289109c4.562376 8.110891 15.207921 11.152475 23.825743 6.590099 8.110891-4.562376 11.152475-15.207921 6.590099-23.825743l-54.241584-94.289109C404.023762-89.473267 397.940594-92.514851 391.857426-92.514851L391.857426-92.514851zM391.857426-92.514851M665.093069-45.370297l-108.483168 0c-9.631683 0-17.235644 7.60396-17.235644 17.235644 0 9.631683 7.60396 17.235644 17.235644 17.235644l108.483168 0c9.631683 0 17.235644-7.60396 17.235644-17.235644S674.217822-45.370297 665.093069-45.370297L665.093069-45.370297zM665.093069-45.370297M637.718812-92.514851c-6.083168 0-11.659406 3.041584-15.207921 8.617822l-54.241584 94.289109c-4.562376 8.110891-2.027723 18.756436 6.590099 23.825743 8.110891 4.562376 18.756436 2.027723 23.825743-6.590099l54.241584-94.289109c4.562376-8.110891 2.027723-18.756436-6.590099-23.825743C643.80198-91.50099 640.760396-92.514851 637.718812-92.514851L637.718812-92.514851zM637.718812-92.514851M583.477228-92.514851c-3.041584 0-6.083168 0.506931-8.617822 2.534653-8.110891 4.562376-11.152475 15.207921-6.590099 23.825743l54.241584 94.289109c4.562376 8.110891 15.207921 11.152475 23.825743 6.590099 8.110891-4.562376 11.152475-15.207921 6.590099-23.825743L598.178218-83.89703C595.136634-89.473267 589.560396-92.514851 583.477228-92.514851L583.477228-92.514851zM583.477228-92.514851M1000.174257 163.992079c-14.70099 0-26.360396 11.659406-26.360396 26.360396 0 14.70099 11.659406 26.360396 26.360396 26.360396 92.768317 0 168.807921 75.532673 168.807921 168.807921 0 92.768317-75.532673 168.807921-168.807921 168.807921l-23.825743 0c-14.70099 0-26.360396 11.659406-26.360396 26.360396l0 23.825743c0 110.510891-89.726733 200.237624-200.237624 200.237624-33.457426 0-66.914851-8.617822-95.809901-24.332673-12.673267-7.09703-28.89505-2.534653-35.992079 10.645545-7.09703 12.673267-2.534653 28.89505 10.645545 35.992079 37.005941 20.277228 79.081188 30.922772 121.156436 30.922772 138.89901 0 251.944554-112.031683 252.958416-250.930693 121.156436-1.520792 218.994059-99.865347 218.994059-221.528713C1221.70297 263.350495 1122.344554 163.992079 1000.174257 163.992079L1000.174257 163.992079zM1000.174257 163.992079M765.465347 96.063366 264.110891 96.063366c-122.170297 0-221.528713 99.358416-221.528713 221.528713 0 121.156436 97.837624 220.007921 218.994059 221.528713C263.09703 677.512871 376.142574 789.544554 515.041584 789.544554s251.944554-112.031683 252.958416-250.930693c121.156436-1.520792 218.994059-99.865347 218.994059-221.528713C986.994059 195.421782 887.635644 96.063366 765.465347 96.063366L765.465347 96.063366zM264.110891 486.4c-92.768317 0-168.807921-75.532673-168.807921-168.807921s75.532673-168.807921 168.807921-168.807921L765.465347 148.784158c92.768317 0 168.807921 75.532673 168.807921 168.807921S858.740594 486.4 765.465347 486.4l-23.825743 0c-14.70099 0-26.360396 11.659406-26.360396 26.360396l0 23.825743c0 110.510891-89.726733 200.237624-200.237624 200.237624-110.510891 0-200.237624-89.726733-200.237624-200.237624l0-23.825743c0-14.70099-11.659406-26.360396-26.360396-26.360396L264.110891 486.4 264.110891 486.4zM264.110891 486.4"  horiz-adv-x="1258" />

    
    <glyph glyph-name="04" unicode="&#59056;" d="M758.133793 630.13277c-65.74333 65.74333-153.157215 101.951997-246.131747 101.951997-92.978624 0-180.38944-36.208667-246.13584-101.951997-65.74333-65.7464-101.950973-153.157215-101.950973-246.131747 0-92.978624 36.208667-180.388417 101.950973-246.134817 65.74333-65.7464 153.157215-101.950973 246.13584-101.950973 92.974531 0 180.385347 36.204573 246.131747 101.950973 65.7464 65.74333 101.950973 153.157215 101.950973 246.134817C860.084767 476.976578 823.880193 564.38637 758.133793 630.13277L758.133793 630.13277zM728.629829 167.370171 728.629829 167.370171l-136.468115 136.471185c-14.605649-14.606673-32.200376-24.388457-50.814316-29.356608l49.975205-186.511881c-25.559119-6.804986-52.16815-10.337439-79.320557-10.337439-27.15343 0-53.764508 3.532453-79.32158 10.337439l49.976228 186.511881c-18.619056 4.968152-36.21276 14.749936-50.815339 29.356608L295.369148 167.370171c-39.418778 39.418778-65.822125 87.002516-79.225389 137.354298l186.339966 49.931203c-5.128811 19.201318-5.128811 39.48427 0 58.688657l-186.339966 49.927109c13.403265 50.355875 39.806611 97.93552 79.225389 137.359414l0 0 136.468115-136.468115c14.602579 14.602579 32.200376 24.384363 50.818409 29.356608l-49.976228 186.507788c25.557072 6.804986 52.16508 10.333346 79.32158 10.333346 27.15343 0 53.761438-3.52836 79.317487-10.333346l-49.975205-186.510858c18.61394-4.968152 36.211736-14.750959 50.814316-29.352515l136.471185 136.468115 0 0c38.661531-38.661531 65.698305-85.845157 79.397305-137.307226L621.518323 413.344329c5.125741-19.200294 5.125741-39.48734 0-58.688657l186.508811-49.975205C794.328134 253.214305 767.29136 206.031703 728.629829 167.370171L728.629829 167.370171zM530.411325 478.174869l-18.412348 89.816608-17.059538-89.583295c-18.600637-3.344165-36.410258-12.184507-50.786687-26.559912-37.46938-37.473473-37.473473-98.224092 0-135.696542 37.473473-37.473473 98.227162-37.473473 135.693472 0 37.473473 37.47245 37.473473 98.224092 0 135.696542C565.81772 465.878822 548.524868 474.653673 530.411325 478.174869L530.411325 478.174869zM530.411325 478.174869"  horiz-adv-x="1024" />

    
    <glyph glyph-name="sanjiao-right-copy" unicode="&#58887;" d="M320.979 810.030l425.595-426.465-426.465-425.595z"  horiz-adv-x="1024" />

    
    <glyph glyph-name="money" unicode="&#59150;" d="M497.932098 831.24723c37.990243 0.610914 64.273862-5.40408 86.98819-19.694551 7.724938-6.077416 15.46318-12.154831 23.201421-18.234293 13.017478 2.870374 24.847921 8.361435 39.86187 10.945283 60.653405 10.42135 113.546056-47.749514 100.767008-110.138446-9.94756-48.536436-34.995025-92.741217-69.590961-116.716258 0.236384-0.487094 0.474814-0.974188 0.723477-1.460258 31.376615-9.822716 59.656705-32.973996 84.093257-51.057863 85.328387-63.11241 141.764748-153.12754 168.897711-274.985912 6.203282-27.855418 7.251148-57.508785 7.251148-91.181699 0.01228-111.49842-33.523511-189.45184-117.440759-215.909421-25.348318-7.987928-61.85272-5.841032-94.962815-5.841032-55.326073 0-110.676705 0-166.001755 0-77.553307 0-155.132196 0-232.69676 0-79.113849 0-124.853589-3.518127-171.081447 30.652114-60.541865 44.754297-88.547709 159.574369-66.682725 269.15102 21.99085 110.22645 70.190619 207.454866 142.800333 266.236644 21.766746 17.610076 43.582611 35.531238 68.142983 50.333362 14.502295 7.537673 29.005614 15.064091 43.494607 22.601764-7.487531 8.024767-14.97711 16.050558-22.477944 24.074302-18.757203 23.962761-33.646308 51.631938-42.033325 86.077447-14.7264 60.404742 15.575744 99.580996 59.431577 113.059985 9.784854 2.995217 24.336268 7.30129 38.428218 5.104251 15.074324-2.358721 26.745131-8.723685 39.874149-10.209526 13.104459 14.252609 33.059953 25.672706 53.640688 32.086789C481.00866 827.852924 489.469356 829.549565 497.932098 831.24723zM481.981824 251.353934c0-14.32731 0-28.67918 0-43.032072-34.133402 0.623193-101.464903 11.631922-97.134271-26.983561 3.194762-28.578896 65.696258-19.518542 97.134271-18.97005-0.824785-30.002314 0.324388-48.098461 24.648376-53.240575 5.167696-1.098008 14.46648-1.422396 18.845207 0.724501 15.901155 7.78736 17.33583 27.780717 16.673751 52.516074 33.322943-0.523933 94.015234-10.083659 99.307773 18.97005 7.275707 39.913035-65.884546 28.92989-99.307773 28.456099 0.237407 13.853519 0.474814 27.707039 0.724501 41.559535 33.360805-0.623193 107.693768-9.934257 97.858772 31.375591-6.776334 28.480658-63.86147 20.316721-98.583273 19.693528 0 8.012488 0 16.050558 0 24.062022 28.505217 31.376615 57.023738 62.752206 85.541235 94.102215 7.637957 9.928117 11.719926 24.230867 2.895957 35.736922-7.725962 10.072403-24.399713 11.781324-35.518958 3.657296-27.631314-20.192901-57.960063-56.990992-81.921801-82.426291-0.474814 0.249687-0.960885 0.473791-1.446955 0.724501-6.515391 7.28901-13.042037 14.601556-19.570731 21.890566-12.45466 15.601326-38.164205 49.41648-53.639664 59.812247-11.157107 7.476275-29.904077 13.616112-39.151695 0-8.723685-12.854772-2.596128-32.598442 5.079692-43.038212 22.751167-30.950919 55.762001-59.057047 79.013565-90.458221-0.488117-8.509814-0.960885-17.022699-1.447978-25.53456-34.483372 0.674359-105.85898 11.783371-96.410793-31.350009C391.562489 242.243439 449.295378 250.7553 481.981824 251.353934z"  horiz-adv-x="1024" />

    
    <glyph glyph-name="dian" unicode="&#58905;" d="M370.324792 163.133683l16.937764-16.937764c-28.251438-25.405623-76.216869-46.577828-143.965879-63.513546l-80.45131-63.514569-50.811246 0-29.640064 25.405623 0 38.108946 16.936741 16.936741 12.703323 0 0-16.936741 25.405623-16.937764c70.527286 45.122687 145.355529 74.761728 224.417189 88.920192L370.324792 163.133683zM459.244984 798.275281l8.468882 0c47.965431 0 71.982428-24.015973 71.982428-71.982428l0-8.468882-8.467859-8.468882 0-8.467859 8.467859-8.468882 8.467859 0 135.496997 46.577828 16.937764-29.640064c0-16.936741-56.501852-40.953737-169.371502-71.982428l0-143.965879 8.467859 0c19.717064 14.09195 67.74901 26.795273 143.965879 38.108946l16.937764-29.640064 0-25.405623-88.920192-105.856933c0-19.782555 9.858532-29.640064 29.640064-29.640064l0-16.937764-173.60492-63.513546-16.937764 16.937764 0 12.703323c87.465051 56.434314 148.201343 112.868627 182.074825 169.371502l0 16.936741C494.509139 448.219627 425.371502 388.939499 425.371502 298.63068l0-46.577828 8.467859-33.874505-8.467859-12.703323-38.107923 0-16.937764 46.577828L370.325815 315.567421c0 53.590546-11.313673 91.698468-33.874505 114.325815l0 21.172205 25.405623 0 33.874505-38.108946c42.342364 14.09195 73.372078 35.264155 93.154633 63.514569l-12.703323 25.405623 21.171182 55.045687L497.35393 667.012725l8.467859 33.874505L459.244984 798.275281zM730.238978 226.647229l55.04671-21.171182 59.279105 0c67.747987-42.342364 101.622492-83.295078 101.622492-122.793674l-21.170159-38.108946-139.730415 29.640064L785.286712 99.619114l80.449263 0 16.938788 16.937764c0 42.343387-32.485879 63.513546-97.388051 63.513546l0 8.467859-12.704346-8.467859-8.467859 0-33.874505 16.937764-215.948307-71.983451c-59.280128 5.625114-88.920192 15.481599-88.920192 29.640064C563.646775 177.22461 665.270291 201.241606 730.238978 226.647229z"  horiz-adv-x="1024" />

    
    <glyph glyph-name="back-to-top-copy" unicode="&#58888;" d="M511.999 896c-282.769 0-511.999-229.231-511.999-512 0-282.77 229.23-512 512-512 282.771 0 512 229.23 512 512 0 282.769-229.23 512-512.001 512zM743.37 291c-8.617 0-16.477 3.493-22.138 9.138l-178.481 178.4v-414.386c0-17.245-13.985-31.245-31.246-31.245-17.277 0-31.276 14.001-31.276 31.245v0.029l0 413.386-176.891-176.909c-5.709-5.967-13.754-9.676-22.679-9.676-17.352 0-31.414 14.062-31.414 31.43 0 8.614 3.492 16.43 9.093 22.093l230.908 230.938c5.723 6.031 13.768 9.815 22.74 9.815 8.813 0 16.799-3.677 22.476-9.539l231.15-231.213c5.647-5.645 9.138-13.477 9.138-22.122 0-17.339-14.045-31.386-31.382-31.386zM772.922 614.138h-521.844c-17.261 0-31.276 14.030-31.276 31.277 0 17.293 14.015 31.278 31.276 31.278h521.846c17.26 0 31.278-13.985 31.278-31.278-0.001-17.245-14.019-31.277-31.279-31.277z"  horiz-adv-x="1024" />

    
    <glyph glyph-name="fanhui" unicode="&#58933;" d="M1037.444062 290.388018C1003.667599 504.193029 682.7912 643.858703 432.845374 684.390459l56.237811 211.609541L0 608.562299l368.670094-409.539614 22.461348 216.169363C656.952206 355.576591 831.745403 255.429378 819.079229 127.078819c-10.132939-103.018212-103.018212-190.330369-225.626773-247.24371-5.404234-2.702117-14.017232-6.079763-15.030526-7.430822-0.337765-0.506647 9.964057-0.506647 18.070408-0.168882C782.600649-115.098421 1077.469171 37.064545 1037.444062 290.388018zM0 607.549006"  horiz-adv-x="1042" />

    
    </font>
</defs>
</svg>
